<svg width="292" height="268" viewBox="0 0 292 268" fill="none" xmlns="http://www.w3.org/2000/svg">
<g filter="url(#filter0_d)">
<path fill-rule="evenodd" clip-rule="evenodd" d="M118.512 83.1817C124.871 74.7104 133.019 67.347 142.789 61.7064C181.227 39.5143 230.209 52.3928 252.193 90.4714C274.178 128.55 260.84 177.409 222.402 199.601C185.285 221.031 138.334 209.758 115.357 174.67C115.106 174.82 114.854 174.968 114.6 175.114C88.3764 190.255 55.0121 181.561 40.0791 155.696C25.1461 129.832 34.2993 96.5903 60.5232 81.4499C79.3236 70.5955 101.794 71.9911 118.512 83.1817Z" fill="white"/>
</g>
<path fill-rule="evenodd" clip-rule="evenodd" d="M238.324 187.602L234.824 120.274C234.815 120.094 234.958 119.943 235.138 119.943C239.48 119.943 242.999 116.423 242.999 112.081V86.4887V70.4064C242.999 68.1441 241.165 66.3101 238.903 66.3101C236.641 66.3101 234.807 68.1441 234.807 70.4064V85.9426C234.807 86.2442 234.562 86.4887 234.261 86.4887C233.959 86.4887 233.714 86.2442 233.714 85.9426V59.7861C233.714 57.5237 231.88 55.6898 229.618 55.6898C227.356 55.6898 225.522 57.5237 225.522 59.7861V85.6695C225.522 86.1219 225.155 86.4887 224.703 86.4887C224.25 86.4887 223.883 86.1219 223.883 85.6695V56.069C223.883 53.8066 222.049 51.9727 219.787 51.9727C217.525 51.9727 215.691 53.8066 215.691 56.069V85.6695C215.691 86.1219 215.324 86.4887 214.872 86.4887C214.419 86.4887 214.052 86.1219 214.052 85.6695V59.7861C214.052 57.5237 212.218 55.6898 209.956 55.6898C207.694 55.6898 205.86 57.5237 205.86 59.7861V86.4887V91.9723C205.86 93.401 204.089 94.0666 203.148 92.9915L195.757 84.5483C194.616 83.2451 192.666 83.0371 191.276 84.0704C189.991 85.0259 189.571 86.7623 190.276 88.1998L203.202 114.53C204.829 117.843 208.199 119.943 211.89 119.943C212.172 119.943 212.394 120.184 212.372 120.465L205.455 206.975C211.246 205.209 216.931 202.76 222.403 199.601C228.316 196.187 233.636 192.142 238.324 187.602Z" fill="url(#paint0_linear)"/>
<path fill-rule="evenodd" clip-rule="evenodd" d="M178.562 210.395L169.945 96.5168C169.918 96.1558 170.204 95.8479 170.566 95.8479C175.359 95.8479 179.727 93.0932 181.792 88.7669L198.725 53.2888C199.611 51.4333 199.076 49.2112 197.443 47.9623C195.605 46.5572 192.99 46.8367 191.491 48.5981L181.919 59.8451C180.719 61.2554 178.412 60.4067 178.412 58.5548V51.1337V15.2914C178.412 12.3515 176.029 9.96824 173.089 9.96824C170.149 9.96824 167.766 12.3515 167.766 15.2914V50.0691C167.766 50.657 167.289 51.1337 166.701 51.1337C166.113 51.1337 165.636 50.657 165.636 50.0691V10.3231C165.636 7.38324 163.253 5 160.313 5C157.373 5 154.99 7.38324 154.99 10.3231V50.0691C154.99 50.657 154.513 51.1337 153.926 51.1337C153.338 51.1337 152.861 50.657 152.861 50.0691V15.2914C152.861 12.3515 150.478 9.96824 147.538 9.96824C144.598 9.96824 142.215 12.3515 142.215 15.2914V50.4239C142.215 50.8159 141.897 51.1337 141.505 51.1337C141.113 51.1337 140.795 50.8159 140.795 50.4239V29.4863C140.795 26.5465 138.412 24.1632 135.472 24.1632C132.532 24.1632 130.149 26.5465 130.149 29.4863V51.1337V85.6395C130.149 91.2774 134.719 95.8479 140.357 95.8479C140.594 95.8479 140.781 96.0485 140.765 96.2847L133.905 194.474C146.845 204.2 162.477 209.703 178.562 210.395Z" fill="#A2CD6A"/>
<path fill-rule="evenodd" clip-rule="evenodd" d="M107.591 178.537L100.536 106.184C100.506 105.87 100.753 105.597 101.069 105.597C105.188 105.597 108.942 103.233 110.721 99.5181L125.286 69.1095C126.051 67.5112 125.59 65.5951 124.18 64.5209C122.602 63.3184 120.359 63.5579 119.071 65.0666L110.829 74.7168C109.794 75.9292 107.809 75.197 107.809 73.6027V67.2474V36.5226C107.809 33.9924 105.758 31.9413 103.228 31.9413C100.698 31.9413 98.6466 33.9924 98.6466 36.5226V66.3311C98.6466 66.8372 98.2363 67.2474 97.7303 67.2474C97.2243 67.2474 96.814 66.8372 96.814 66.3311V32.2616C96.814 29.7313 94.7629 27.6802 92.2326 27.6802C89.7024 27.6802 87.6513 29.7313 87.6513 32.2616V66.3311C87.6513 66.8372 87.241 67.2474 86.735 67.2474C86.2289 67.2474 85.8187 66.8372 85.8187 66.3311V36.5226C85.8187 33.9924 83.7676 31.9413 81.2373 31.9413C78.7071 31.9413 76.6559 33.9924 76.6559 36.5226V66.6365C76.6559 66.9739 76.3825 67.2474 76.0451 67.2474C75.7077 67.2474 75.4342 66.9739 75.4342 66.6365V48.6972C75.4342 46.1669 73.3831 44.1158 70.8529 44.1158C68.3226 44.1158 66.2715 46.1669 66.2715 48.6972V67.2474V96.8106C66.2715 101.663 70.2054 105.597 75.058 105.597C75.2615 105.597 75.4225 105.769 75.4087 105.973L70.3664 179.992C82.2336 183.754 95.4023 183.467 107.591 178.537Z" fill="url(#paint1_linear)"/>
<defs>
<filter id="filter0_d" x="0.911133" y="22.8387" width="289.876" height="219.63" filterUnits="userSpaceOnUse" color-interpolation-filters="sRGB">
<feFlood flood-opacity="0" result="BackgroundImageFix"/>
<feColorMatrix in="SourceAlpha" type="matrix" values="0 0 0 0 0 0 0 0 0 0 0 0 0 0 0 0 0 0 127 0"/>
<feOffset dx="-2" dy="2"/>
<feGaussianBlur stdDeviation="15"/>
<feColorMatrix type="matrix" values="0 0 0 0 0.376013 0 0 0 0 0.265938 0 0 0 0 0.4625 0 0 0 0.1 0"/>
<feBlend mode="normal" in2="BackgroundImageFix" result="effect1_dropShadow"/>
<feBlend mode="normal" in="SourceGraphic" in2="effect1_dropShadow" result="shape"/>
</filter>
<linearGradient id="paint0_linear" x1="216.468" y1="48.9475" x2="216.468" y2="207.015" gradientUnits="userSpaceOnUse">
<stop stop-color="#F89459"/>
<stop offset="1" stop-color="#EB7834"/>
</linearGradient>
<linearGradient id="paint1_linear" x1="95.9622" y1="27.6802" x2="95.9622" y2="182.557" gradientUnits="userSpaceOnUse">
<stop stop-color="#FFDF5A"/>
<stop offset="1" stop-color="#FBD431"/>
</linearGradient>
</defs>
</svg>
