<svg width="298" height="266" viewBox="0 0 298 266" fill="none" xmlns="http://www.w3.org/2000/svg">
<g filter="url(#filter0_d)">
<path fill-rule="evenodd" clip-rule="evenodd" d="M102.625 170.323C109.726 170.323 116.582 169.282 123.045 167.345C123.926 204.028 154.516 233.499 192.124 233.499C230.286 233.499 261.222 203.152 261.222 165.717C261.222 149.038 255.081 133.767 244.896 121.959C247.775 115.63 249.376 108.612 249.376 101.225C249.376 73.2396 226.395 50.5529 198.046 50.5529C184.411 50.5529 172.017 55.8013 162.825 64.3634C150.471 44.2462 128.132 30.8104 102.625 30.8104C63.7356 30.8104 32.21 62.0415 32.21 100.567C32.21 139.092 63.7356 170.323 102.625 170.323Z" fill="white"/>
</g>
<path fill-rule="evenodd" clip-rule="evenodd" d="M75.7473 114.894L111.545 61.02L114.497 62.9815L78.6994 116.856L75.7473 114.894Z" fill="url(#paint0_linear)"/>
<path fill-rule="evenodd" clip-rule="evenodd" d="M25.2782 51.9718L55.6832 110.808L52.5344 112.435L22.1294 53.599L25.2782 51.9718Z" fill="url(#paint1_linear)"/>
<path fill-rule="evenodd" clip-rule="evenodd" d="M83.8232 136.56L149.525 131.565L149.794 135.1L84.0919 140.094L83.8232 136.56Z" fill="url(#paint2_linear)"/>
<path fill-rule="evenodd" clip-rule="evenodd" d="M76.3618 144.418L198.996 217.849L197.175 220.89L74.5409 147.459L76.3618 144.418Z" fill="url(#paint3_linear)"/>
<path fill-rule="evenodd" clip-rule="evenodd" d="M151.497 130.03L181.978 197.373L178.749 198.834L148.268 131.492L151.497 130.03Z" fill="url(#paint4_linear)"/>
<path fill-rule="evenodd" clip-rule="evenodd" d="M112.808 53.8602L187.251 45.3538L187.654 48.8752L113.21 57.3816L112.808 53.8602Z" fill="url(#paint5_linear)"/>
<path fill-rule="evenodd" clip-rule="evenodd" d="M177.975 81.7023L152.174 133.039L149.007 131.447L174.808 80.1107L177.975 81.7023Z" fill="url(#paint6_linear)"/>
<path fill-rule="evenodd" clip-rule="evenodd" d="M246.996 92.3347L151.299 134.018L149.884 130.769L245.581 89.0852L246.996 92.3347Z" fill="url(#paint7_linear)"/>
<path fill-rule="evenodd" clip-rule="evenodd" d="M254.37 90.2156L275.991 164.647L272.587 165.636L250.967 91.2043L254.37 90.2156Z" fill="url(#paint8_linear)"/>
<path fill-rule="evenodd" clip-rule="evenodd" d="M148.903 130.462L276.5 163.07L275.622 166.504L148.026 133.896L148.903 130.462Z" fill="url(#paint9_linear)"/>
<path fill-rule="evenodd" clip-rule="evenodd" d="M192.149 220.016L275.087 165.433L277.036 168.394L194.098 222.977L192.149 220.016Z" fill="url(#paint10_linear)"/>
<path d="M122.945 59.8741C122.945 64.9636 118.819 69.0894 113.73 69.0894C108.64 69.0894 104.515 64.9636 104.515 59.8741C104.515 54.7846 108.64 50.6588 113.73 50.6588C118.819 50.6588 122.945 54.7846 122.945 59.8741Z" fill="url(#paint11_linear)"/>
<path d="M163.351 132.179C163.351 139.617 157.321 145.647 149.882 145.647C142.444 145.647 136.414 139.617 136.414 132.179C136.414 124.74 142.444 118.71 149.882 118.71C157.321 118.71 163.351 124.74 163.351 132.179Z" fill="url(#paint12_linear)"/>
<path d="M258.34 88.9378C258.34 94.0273 254.214 98.1531 249.124 98.1531C244.035 98.1531 239.909 94.0273 239.909 88.9378C239.909 83.8483 244.035 79.7225 249.124 79.7225C254.214 79.7225 258.34 83.8483 258.34 88.9378Z" fill="url(#paint13_linear)"/>
<path d="M34.3366 54.912C34.3366 60.0015 30.2108 64.1273 25.1213 64.1273C20.0318 64.1273 15.906 60.0015 15.906 54.912C15.906 49.8226 20.0318 45.6967 25.1213 45.6967C30.2108 45.6967 34.3366 49.8226 34.3366 54.912Z" fill="url(#paint14_linear)"/>
<path d="M288.112 165.496C288.112 172.934 282.082 178.964 274.644 178.964C267.205 178.964 261.175 172.934 261.175 165.496C261.175 158.057 267.205 152.027 274.644 152.027C282.082 152.027 288.112 158.057 288.112 165.496Z" fill="url(#paint15_linear)"/>
<path fill-rule="evenodd" clip-rule="evenodd" d="M185.326 40.7346C194.722 40.7346 202.339 32.959 202.339 23.3673C202.339 13.7756 194.722 6 185.326 6C175.93 6 168.313 13.7756 168.313 23.3673C168.313 32.959 175.93 40.7346 185.326 40.7346ZM213.093 88.9378V69.0019V68.6946H213.091C212.927 53.7301 200.745 41.6499 185.741 41.6499C170.737 41.6499 158.555 53.7301 158.391 68.6946H158.389V69.0019V88.9378C158.389 96.7677 164.736 103.115 172.566 103.115H198.916C206.746 103.115 213.093 96.7678 213.093 88.9378Z" fill="url(#paint16_linear)"/>
<g filter="url(#filter1_d)">
<path fill-rule="evenodd" clip-rule="evenodd" d="M60.2459 156.28H78.4076C86.2375 156.28 92.585 149.933 92.585 142.103V122.167V121.86H92.5833C92.4185 106.895 80.2365 94.8151 65.2329 94.8151C50.2294 94.8151 38.0473 106.895 37.8826 121.86H37.8809V122.167V128.039C42.7487 139.283 50.5139 149.004 60.2459 156.28ZM81.8308 76.5325C81.8308 86.1243 74.2139 93.8999 64.8179 93.8999C55.422 93.8999 47.805 86.1243 47.805 76.5325C47.805 66.9408 55.422 59.1652 64.8179 59.1652C74.2139 59.1652 81.8308 66.9408 81.8308 76.5325Z" fill="url(#paint17_linear)"/>
</g>
<g filter="url(#filter2_d)">
<path fill-rule="evenodd" clip-rule="evenodd" d="M227.899 223.718C227.952 223.221 227.979 222.716 227.979 222.205V202.269V201.962H227.978C227.813 186.998 215.631 174.917 200.627 174.917C185.624 174.917 173.442 186.998 173.277 201.962H173.275V202.269V222.205C173.275 225.951 174.728 229.358 177.101 231.893C181.937 232.945 186.965 233.499 192.124 233.499C205.219 233.499 217.464 229.926 227.899 223.718ZM217.225 156.635C217.225 166.227 209.608 174.002 200.212 174.002C190.816 174.002 183.199 166.227 183.199 156.635C183.199 147.043 190.816 139.268 200.212 139.268C209.608 139.268 217.225 147.043 217.225 156.635Z" fill="url(#paint18_linear)"/>
</g>
<path d="M61.9999 50.5C36.4755 51.5011 44.4999 75.5 47.9999 77.5C47.9999 72 51.6999 62.5 64.4999 62.5C77.2999 62.5 81 73 81.5 77.5C87 69 87.5244 49.499 61.9999 50.5Z" fill="#0F75BC"/>
<path d="M182.5 16C189 14.5 190.5 13 193 7.50002C190 -0.999976 175.5 -3.49999 171 7.50002C169.107 12.1278 164 11.6667 161.5 17.5C160 21 161.516 24.0806 163 31.5C163.5 34 157 42 163.5 44.5C169.272 46.7202 172 41 171 37C169.375 30.5 174.5 31.5 176.5 27.5C179 22.5 176 17.5 182.5 16Z" fill="url(#paint19_linear)"/>
<path d="M201.5 7.49998C198.7 4.69998 194.667 6.6667 193 7.50003L190.5 12.0001C192.833 13.5001 197 13.9822 197 21.0001C197 27.0001 199 29.5001 199 32.0001C199 37.5902 196.626 38.5022 197.5 42C199 48 207 47 209 45C211 43 211 40.5001 209 36.0001C207 31.5001 209 31.5001 210 25.5001C211 19.5001 206.5 19.0001 204.5 16.5001C202.5 14.0001 205 11 201.5 7.49998Z" fill="url(#paint20_linear)"/>
<path d="M186 158.5L182.5 158C181.666 152.667 181.536 141.39 182.5 138.5C185 131 189.5 138.5 191.5 135C193.5 131.5 196.103 131.97 198 134.5C199.5 136.5 200.92 134.888 202 134C203.24 132.981 204.386 131.896 206.5 132.5C210.346 133.599 209.5 136.5 213.5 135.5C217.38 134.53 217.5 139 217.5 143.5V157.5L215 158L212.5 146C203.7 147.6 191.333 146.667 187 146L186 158.5Z" fill="#D91B5C"/>
<defs>
<filter id="filter0_d" x="0.209961" y="2.81044" width="289.012" height="262.689" filterUnits="userSpaceOnUse" color-interpolation-filters="sRGB">
<feFlood flood-opacity="0" result="BackgroundImageFix"/>
<feColorMatrix in="SourceAlpha" type="matrix" values="0 0 0 0 0 0 0 0 0 0 0 0 0 0 0 0 0 0 127 0"/>
<feOffset dx="-2" dy="2"/>
<feGaussianBlur stdDeviation="15"/>
<feColorMatrix type="matrix" values="0 0 0 0 0.376013 0 0 0 0 0.265938 0 0 0 0 0.4625 0 0 0 0.1 0"/>
<feBlend mode="normal" in2="BackgroundImageFix" result="effect1_dropShadow"/>
<feBlend mode="normal" in="SourceGraphic" in2="effect1_dropShadow" result="shape"/>
</filter>
<filter id="filter1_d" x="5.88086" y="31.1652" width="114.704" height="157.115" filterUnits="userSpaceOnUse" color-interpolation-filters="sRGB">
<feFlood flood-opacity="0" result="BackgroundImageFix"/>
<feColorMatrix in="SourceAlpha" type="matrix" values="0 0 0 0 0 0 0 0 0 0 0 0 0 0 0 0 0 0 127 0"/>
<feOffset dx="-2" dy="2"/>
<feGaussianBlur stdDeviation="15"/>
<feColorMatrix type="matrix" values="0 0 0 0 0.376013 0 0 0 0 0.265938 0 0 0 0 0.4625 0 0 0 0.1 0"/>
<feBlend mode="normal" in2="BackgroundImageFix" result="effect1_dropShadow"/>
<feBlend mode="normal" in="SourceGraphic" in2="effect1_dropShadow" result="shape"/>
</filter>
<filter id="filter2_d" x="141.275" y="111.268" width="114.704" height="154.232" filterUnits="userSpaceOnUse" color-interpolation-filters="sRGB">
<feFlood flood-opacity="0" result="BackgroundImageFix"/>
<feColorMatrix in="SourceAlpha" type="matrix" values="0 0 0 0 0 0 0 0 0 0 0 0 0 0 0 0 0 0 127 0"/>
<feOffset dx="-2" dy="2"/>
<feGaussianBlur stdDeviation="15"/>
<feColorMatrix type="matrix" values="0 0 0 0 0.376013 0 0 0 0 0.265938 0 0 0 0 0.4625 0 0 0 0.1 0"/>
<feBlend mode="normal" in2="BackgroundImageFix" result="effect1_dropShadow"/>
<feBlend mode="normal" in="SourceGraphic" in2="effect1_dropShadow" result="shape"/>
</filter>
<linearGradient id="paint0_linear" x1="113.235" y1="58.2994" x2="60.4169" y2="119.648" gradientUnits="userSpaceOnUse">
<stop stop-color="#ADEB5C"/>
<stop offset="1" stop-color="#61D5FF"/>
</linearGradient>
<linearGradient id="paint1_linear" x1="57.5985" y1="111.148" x2="-3.79094" y2="76.8117" gradientUnits="userSpaceOnUse">
<stop stop-color="#ADEB5C"/>
<stop offset="1" stop-color="#61D5FF"/>
</linearGradient>
<linearGradient id="paint2_linear" x1="151.65" y1="130.276" x2="76.9396" y2="158.462" gradientUnits="userSpaceOnUse">
<stop stop-color="#ADEB5C"/>
<stop offset="1" stop-color="#61D5FF"/>
</linearGradient>
<linearGradient id="paint3_linear" x1="203.154" y1="215.26" x2="41.375" y2="185.419" gradientUnits="userSpaceOnUse">
<stop stop-color="#ADEB5C"/>
<stop offset="1" stop-color="#61D5FF"/>
</linearGradient>
<linearGradient id="paint4_linear" x1="181.948" y1="195.3" x2="159.122" y2="200.111" gradientUnits="userSpaceOnUse">
<stop stop-color="#ADEB5C"/>
<stop offset="1" stop-color="#61D5FF"/>
</linearGradient>
<linearGradient id="paint5_linear" x1="189.255" y1="65.7751" x2="170.329" y2="8.81482" gradientUnits="userSpaceOnUse">
<stop stop-color="#ADEB5C"/>
<stop offset="1" stop-color="#61D5FF"/>
</linearGradient>
<linearGradient id="paint6_linear" x1="149.121" y1="135.323" x2="201.485" y2="112.097" gradientUnits="userSpaceOnUse">
<stop stop-color="#ADEB5C"/>
<stop offset="1" stop-color="#61D5FF"/>
</linearGradient>
<linearGradient id="paint7_linear" x1="145.782" y1="134.98" x2="216.511" y2="173.758" gradientUnits="userSpaceOnUse">
<stop stop-color="#ADEB5C"/>
<stop offset="1" stop-color="#61D5FF"/>
</linearGradient>
<linearGradient id="paint8_linear" x1="229.27" y1="110.524" x2="281.867" y2="88.2604" gradientUnits="userSpaceOnUse">
<stop stop-color="#ADEB5C"/>
<stop offset="1" stop-color="#61D5FF"/>
</linearGradient>
<linearGradient id="paint9_linear" x1="145.432" y1="137.35" x2="289.29" y2="109.174" gradientUnits="userSpaceOnUse">
<stop stop-color="#ADEB5C"/>
<stop offset="1" stop-color="#61D5FF"/>
</linearGradient>
<linearGradient id="paint10_linear" x1="188.295" y1="223.312" x2="210.575" y2="244.619" gradientUnits="userSpaceOnUse">
<stop stop-color="#ADEB5C"/>
<stop offset="1" stop-color="#61D5FF"/>
</linearGradient>
<linearGradient id="paint11_linear" x1="122.345" y1="49.7608" x2="106.819" y2="75.7448" gradientUnits="userSpaceOnUse">
<stop stop-color="#ADEB5C"/>
<stop offset="1" stop-color="#61D5FF"/>
</linearGradient>
<linearGradient id="paint12_linear" x1="162.473" y1="117.398" x2="139.782" y2="155.374" gradientUnits="userSpaceOnUse">
<stop stop-color="#ADEB5C"/>
<stop offset="1" stop-color="#61D5FF"/>
</linearGradient>
<linearGradient id="paint13_linear" x1="257.739" y1="78.8245" x2="242.214" y2="104.808" gradientUnits="userSpaceOnUse">
<stop stop-color="#ADEB5C"/>
<stop offset="1" stop-color="#61D5FF"/>
</linearGradient>
<linearGradient id="paint14_linear" x1="33.7363" y1="44.7987" x2="18.2107" y2="70.7827" gradientUnits="userSpaceOnUse">
<stop stop-color="#ADEB5C"/>
<stop offset="1" stop-color="#61D5FF"/>
</linearGradient>
<linearGradient id="paint15_linear" x1="287.235" y1="150.715" x2="264.543" y2="188.691" gradientUnits="userSpaceOnUse">
<stop stop-color="#ADEB5C"/>
<stop offset="1" stop-color="#61D5FF"/>
</linearGradient>
<linearGradient id="paint16_linear" x1="185.741" y1="6" x2="185.741" y2="103.115" gradientUnits="userSpaceOnUse">
<stop stop-color="#FFE268"/>
<stop offset="1" stop-color="#FBD431"/>
</linearGradient>
<linearGradient id="paint17_linear" x1="65.2329" y1="59.1652" x2="65.2329" y2="156.28" gradientUnits="userSpaceOnUse">
<stop stop-color="#88DBFA"/>
<stop offset="1" stop-color="#4FC7F3"/>
</linearGradient>
<linearGradient id="paint18_linear" x1="200.627" y1="139.268" x2="200.627" y2="233.499" gradientUnits="userSpaceOnUse">
<stop stop-color="#F4A022"/>
<stop offset="1" stop-color="#EB7834"/>
</linearGradient>
<linearGradient id="paint19_linear" x1="176.796" y1="0.157715" x2="176.796" y2="44.9961" gradientUnits="userSpaceOnUse">
<stop stop-color="#F4A022"/>
<stop offset="1" stop-color="#EB7834"/>
</linearGradient>
<linearGradient id="paint20_linear" x1="200.5" y1="6.04895" x2="200.5" y2="46.5485" gradientUnits="userSpaceOnUse">
<stop stop-color="#F4A022"/>
<stop offset="1" stop-color="#EB7834"/>
</linearGradient>
</defs>
</svg>
