<svg id="icon-clip-board" xmlns="http://www.w3.org/2000/svg" xmlns:xlink="http://www.w3.org/1999/xlink" viewBox="0 0 310 270" shape-rendering="geometricPrecision" text-rendering="geometricPrecision"><style><![CDATA[#icon-clip-board{pointer-events: all}#icon-clip-board:hover #icon-clip-board-paper-back_to {animation: icon-clip-board-paper-back_to__to 406.5040650406504ms linear 1 normal forwards}@keyframes icon-clip-board-paper-back_to__to { 0% {transform: translate(9.886900px,-15.262700px);animation-timing-function: cubic-bezier(0.420000,0,1,1)} 80% {transform: translate(13.846964px,-18.550315px)} 100% {transform: translate(13.846964px,-18.550315px)}} #icon-clip-board:hover #icon-clip-board-paper-front_to {animation: icon-clip-board-paper-front_to__to 406.5040650406504ms linear 1 normal forwards}@keyframes icon-clip-board-paper-front_to__to { 0% {transform: translate(175.205597px,154.553474px);animation-timing-function: cubic-bezier(0.420000,0,1,1)} 80% {transform: translate(188.992821px,126.143800px)} 100% {transform: translate(188.992821px,126.143800px)}} #icon-clip-board:hover #icon-clip-board-pencil_tr {animation: icon-clip-board-pencil_tr__tr 406.5040650406504ms linear 1 normal forwards}@keyframes icon-clip-board-pencil_tr__tr { 0% {transform: translate(86.799862px,107.727581px) rotate(0deg);animation-timing-function: cubic-bezier(0.420000,0,1,1)} 80% {transform: translate(86.799862px,107.727581px) rotate(-56.020401deg)} 100% {transform: translate(86.799862px,107.727581px) rotate(-56.020401deg)}}]]></style><defs><filter id="icon-clip-board-circles-filter" x="-400%" width="600%" y="-400%" height="600%"><feGaussianBlur id="icon-clip-board-circles-filter-drop-shadow-0-blur" in="SourceAlpha" stdDeviation="15,20"/><feOffset id="icon-clip-board-circles-filter-drop-shadow-0-offset" dx="-2" dy="2" result="tmp"/><feFlood id="icon-clip-board-circles-filter-drop-shadow-0-flood" flood-color="rgba(96,68,118,0.15)"/><feComposite id="icon-clip-board-circles-filter-drop-shadow-0-composite" operator="in" in2="tmp"/><feMerge id="icon-clip-board-circles-filter-drop-shadow-0-merge"><feMergeNode id="icon-clip-board-circles-filter-drop-shadow-0-merge-node-1"/><feMergeNode id="icon-clip-board-circles-filter-drop-shadow-0-merge-node-2" in="SourceGraphic"/></feMerge></filter><linearGradient id="icon-clip-board-clip-board-fill" x1="81.854900" y1="232.038000" x2="261.803000" y2="186.857000" spreadMethod="pad" gradientUnits="userSpaceOnUse"><stop id="icon-clip-board-clip-board-fill-0" offset="12.024600%" stop-color="rgb(15,117,188)"/><stop id="icon-clip-board-clip-board-fill-1" offset="100%" stop-color="rgb(93,171,225)"/></linearGradient><linearGradient id="icon-clip-board-paper-back-fill" x1="54.160000" y1="0" x2="54.160000" y2="141.803000" spreadMethod="pad" gradientUnits="userSpaceOnUse"><stop id="icon-clip-board-paper-back-fill-0" offset="0%" stop-color="rgb(104,211,250)"/><stop id="icon-clip-board-paper-back-fill-1" offset="82.868400%" stop-color="rgb(79,199,243)"/></linearGradient><linearGradient id="icon-clip-board-paper-fill" x1="75.041000" y1="-10.446100" x2="53.276000" y2="203.677500" spreadMethod="pad" gradientUnits="userSpaceOnUse"><stop id="icon-clip-board-paper-fill-0" offset="22.591400%" stop-color="rgb(171,232,255)"/><stop id="icon-clip-board-paper-fill-1" offset="65.580800%" stop-color="rgb(134,219,250)"/><stop id="icon-clip-board-paper-fill-2" offset="100%" stop-color="rgb(79,199,243)"/></linearGradient><linearGradient id="icon-clip-board-lines-fill" x1="239.156000" y1="88.169600" x2="114.896000" y2="166.126000" spreadMethod="pad" gradientUnits="userSpaceOnUse"><stop id="icon-clip-board-lines-fill-0" offset="0%" stop-color="rgb(255,255,255)"/></linearGradient><linearGradient id="icon-clip-board-pencil-fill" x1="46.222300" y1="67.149800" x2="133.746000" y2="154.674000" spreadMethod="pad" gradientUnits="userSpaceOnUse"><stop id="icon-clip-board-pencil-fill-0" offset="0%" stop-color="rgb(254,160,233)"/><stop id="icon-clip-board-pencil-fill-1" offset="100%" stop-color="rgb(213,160,254)"/></linearGradient></defs><g id="icon-clip-board-icon-clip-board" transform="matrix(1 0 0 1 0 6)"><g id="icon-clip-board-circles" filter="url(#icon-clip-board-circles-filter)"><path id="icon-clip-board-path1" d="M176.341000,201.920000C161.920000,210.705000,144.943000,215.771000,126.771000,215.771000C74.430600,215.771000,32,173.737000,32,121.886000C32,70.034100,74.430600,28,126.771000,28C175.491000,28,215.625000,64.419200,220.944000,111.276000C221.438000,111.263000,221.932000,111.257000,222.429000,111.257000C254.224000,111.257000,280,136.636000,280,167.943000C280,199.250000,254.224000,224.629000,222.429000,224.629000C203.578000,224.629000,186.843000,215.708000,176.341000,201.920000Z" fill="rgb(255,255,255)" stroke="none" stroke-width="1"/></g><path id="icon-clip-board-clip-board" d="M193.435000,216.926000C202.382000,214.935000,209.071000,206.950000,209.071000,197.403000L209.071000,74.945200C209.071000,63.899500,200.117000,54.945200,189.071000,54.945200L101.855000,54.945200C90.809200,54.945200,81.854900,63.899500,81.854900,74.945200L81.854900,197.403000C81.854900,200.269000,82.457500,202.994000,83.542900,205.458000C96.504300,212.051000,111.199000,215.771000,126.771000,215.771000C144.943000,215.771000,161.920000,210.705000,176.341000,201.920000C180.953000,207.975000,186.767000,213.092000,193.435000,216.926000Z" fill="url(#icon-clip-board-clip-board-fill)" stroke="none" stroke-width="1"/><path id="icon-clip-board-clip" d="M141.432000,40.893600C137.353000,40.893600,134.046000,44.200200,134.046000,48.279100C134.046000,48.444600,134.052000,48.608700,134.062000,48.771500L124.691000,48.771500C120.612000,48.771500,117.306000,52.078100,117.306000,56.157000C117.306000,60.236000,120.612000,63.542600,124.691000,63.542600L168.020000,63.542600C172.099000,63.542600,175.406000,60.236000,175.406000,56.157000C175.406000,52.078100,172.099000,48.771500,168.020000,48.771500L158.649000,48.771500C158.659000,48.608700,158.665000,48.444600,158.665000,48.279100C158.665000,44.200200,155.358000,40.893600,151.279000,40.893600L141.432000,40.893600Z" fill="rgb(251,212,49)" stroke="none" stroke-width="1"/><g id="icon-clip-board-paper-back_to" transform="translate(9.886900,-15.262700)"><rect id="icon-clip-board-paper-back" width="108.322000" height="141.803000" rx="10" ry="10" transform="rotate(7.818239) scale(1,1) translate(116.622000,64.712000)" fill="url(#icon-clip-board-paper-back-fill)" stroke="none" stroke-width="1"/></g><g id="icon-clip-board-paper-front_to" transform="translate(175.205597,154.553474)"><g id="icon-clip-board-paper-front" transform="translate(-175.205597,-154.553474)"><rect id="icon-clip-board-paper" width="108.322000" height="141.803000" rx="10" ry="10" transform="matrix(0.96084200000000 0.27709700000000 -0.27709700000000 0.96084200000000 142.81196141549998 71.42059282500000)" fill="url(#icon-clip-board-paper-fill)" stroke="none" stroke-width="1"/><path id="icon-clip-board-lines" d="M152.142000,93.288200C150.836000,92.911500,149.471000,93.665100,149.094000,94.971500C148.718000,96.277900,149.471000,97.642400,150.778000,98.019100L229.311000,120.667000C230.617000,121.044000,231.981000,120.290000,232.358000,118.984000C232.735000,117.678000,231.981000,116.313000,230.675000,115.936000L152.142000,93.288200ZM146.684000,112.212000C145.377000,111.835000,144.013000,112.589000,143.636000,113.895000C143.259000,115.201000,144.013000,116.566000,145.319000,116.943000L223.852000,139.591000C225.159000,139.968000,226.523000,139.214000,226.900000,137.908000C227.277000,136.601000,226.523000,135.237000,225.217000,134.860000L146.684000,112.212000ZM138.179000,132.819000C138.556000,131.512000,139.920000,130.758000,141.227000,131.135000L219.760000,153.783000C221.066000,154.160000,221.820000,155.525000,221.443000,156.831000C221.066000,158.137000,219.702000,158.891000,218.395000,158.514000L139.862000,135.866000C138.556000,135.489000,137.802000,134.125000,138.179000,132.819000ZM135.769000,150.059000C134.463000,149.682000,133.098000,150.436000,132.722000,151.742000C132.345000,153.049000,133.098000,154.413000,134.405000,154.790000L212.938000,177.438000C214.244000,177.815000,215.609000,177.061000,215.985000,175.755000C216.362000,174.448000,215.609000,173.084000,214.302000,172.707000L135.769000,150.059000Z" clip-rule="evenodd" fill="url(#icon-clip-board-lines-fill)" fill-rule="evenodd" stroke="none" stroke-width="1"/></g></g><g id="icon-clip-board-pencil_tr" transform="translate(86.799862,107.727581) rotate(0)"><path id="icon-clip-board-pencil" d="M45.088000,82.426300C41.182800,78.521000,41.182800,72.189400,45.088000,68.284200L47.356700,66.015500C51.261900,62.110300,57.593600,62.110300,61.498800,66.015500L121.637000,126.154000C122.608000,127.125000,123.369000,128.286000,123.872000,129.565000L131.225000,148.263000C132.184000,150.702000,129.775000,153.112000,127.335000,152.153000L108.637000,144.800000C107.359000,144.297000,106.198000,143.536000,105.226000,142.564000L45.088000,82.426300Z" transform="translate(-86.799862,-107.727581)" fill="url(#icon-clip-board-pencil-fill)" stroke="none" stroke-width="1"/></g></g></svg>