<svg width="47" height="62" viewBox="0 0 47 62" fill="none" xmlns="http://www.w3.org/2000/svg">
<g filter="url(#filter0_d)">
<path fill-rule="evenodd" clip-rule="evenodd" d="M38.0863 23.7556C38.6777 22.1145 39 20.3449 39 18.5C39 9.93959 32.0604 3 23.5 3C14.9396 3 8 9.93959 8 18.5C8 20.3449 8.32232 22.1145 8.91371 23.7556C11.552 32.3747 19.2632 43.3065 23.5 48.5C27.7368 43.3065 35.448 32.3747 38.0863 23.7556Z" fill="#FBC231"/>
</g>
<circle cx="23.5" cy="18.5" r="12.5" fill="white"/>
<path d="M14.471 23L18.545 13.2H19.847L23.865 23H22.689L21.457 19.92H16.837L15.591 23H14.471ZM17.215 18.996H21.079L19.161 14.208L17.215 18.996ZM24.3444 21.32L25.0584 20.578C25.5624 21.11 26.0991 21.516 26.6684 21.796C27.2471 22.0667 27.8538 22.202 28.4884 22.202C29.2538 22.202 29.8838 22.02 30.3784 21.656C30.8731 21.292 31.1204 20.83 31.1204 20.27C31.1204 19.766 30.9431 19.3787 30.5884 19.108C30.2431 18.8373 29.6691 18.6367 28.8664 18.506L27.4524 18.282C26.5098 18.1327 25.8144 17.8573 25.3664 17.456C24.9184 17.0453 24.6944 16.4947 24.6944 15.804C24.6944 14.992 25.0118 14.334 25.6464 13.83C26.2811 13.326 27.1118 13.074 28.1384 13.074C28.8198 13.074 29.4964 13.186 30.1684 13.41C30.8404 13.634 31.4518 13.956 32.0024 14.376L31.3864 15.216C30.8544 14.8147 30.3131 14.5113 29.7624 14.306C29.2118 14.1007 28.6564 13.998 28.0964 13.998C27.3964 13.998 26.8271 14.1613 26.3884 14.488C25.9591 14.8053 25.7444 15.216 25.7444 15.72C25.7444 16.1773 25.8984 16.5273 26.2064 16.77C26.5144 17.0127 27.0231 17.19 27.7324 17.302L29.1324 17.526C30.1964 17.7033 30.9711 18.0067 31.4564 18.436C31.9511 18.8653 32.1984 19.458 32.1984 20.214C32.1984 20.6433 32.1051 21.04 31.9184 21.404C31.7411 21.7587 31.4844 22.0667 31.1484 22.328C30.8218 22.58 30.4251 22.7807 29.9584 22.93C29.5011 23.07 28.9971 23.14 28.4464 23.14C27.6718 23.14 26.9251 22.986 26.2064 22.678C25.4971 22.3607 24.8764 21.908 24.3444 21.32Z" fill="#FBC231"/>
<defs>
<filter id="filter0_d" x="0" y="0" width="47" height="61.5" filterUnits="userSpaceOnUse" color-interpolation-filters="sRGB">
<feFlood flood-opacity="0" result="BackgroundImageFix"/>
<feColorMatrix in="SourceAlpha" type="matrix" values="0 0 0 0 0 0 0 0 0 0 0 0 0 0 0 0 0 0 127 0"/>
<feOffset dy="5"/>
<feGaussianBlur stdDeviation="4"/>
<feColorMatrix type="matrix" values="0 0 0 0 0.0823529 0 0 0 0 0.219686 0 0 0 0 0.486275 0 0 0 0.44 0"/>
<feBlend mode="normal" in2="BackgroundImageFix" result="effect1_dropShadow"/>
<feBlend mode="normal" in="SourceGraphic" in2="effect1_dropShadow" result="shape"/>
</filter>
</defs>
</svg>
