<svg width="31" height="31" viewBox="0 0 31 31" fill="none" xmlns="http://www.w3.org/2000/svg">
<circle cx="15.5" cy="15.5" r="15.5" fill="#FBD431"/>
<circle cx="15.5" cy="15.5" r="12.5" fill="white"/>
<path d="M6.4707 20L10.5447 10.2H11.8467L15.8647 20H14.6887L13.4567 16.92H8.8367L7.5907 20H6.4707ZM9.2147 15.996H13.0787L11.1607 11.208L9.2147 15.996Z" fill="#FBC231"/>
<path d="M16.3441 18.32L17.0581 17.578C17.5621 18.11 18.0988 18.516 18.6681 18.796C19.2468 19.0666 19.8534 19.202 20.4881 19.202C21.2534 19.202 21.8834 19.02 22.3781 18.656C22.8728 18.292 23.1201 17.83 23.1201 17.27C23.1201 16.766 22.9428 16.3786 22.5881 16.108C22.2428 15.8373 21.6688 15.6366 20.8661 15.506L19.4521 15.282C18.5094 15.1326 17.8141 14.8573 17.3661 14.456C16.9181 14.0453 16.6941 13.4946 16.6941 12.804C16.6941 11.992 17.0114 11.334 17.6461 10.83C18.2808 10.326 19.1114 10.074 20.1381 10.074C20.8194 10.074 21.4961 10.186 22.1681 10.41C22.8401 10.634 23.4514 10.956 24.0021 11.376L23.3861 12.216C22.8541 11.8146 22.3128 11.5113 21.7621 11.306C21.2114 11.1006 20.6561 10.998 20.0961 10.998C19.3961 10.998 18.8268 11.1613 18.3881 11.488C17.9588 11.8053 17.7441 12.216 17.7441 12.72C17.7441 13.1773 17.8981 13.5273 18.2061 13.77C18.5141 14.0126 19.0228 14.19 19.7321 14.302L21.1321 14.526C22.1961 14.7033 22.9708 15.0066 23.4561 15.436C23.9508 15.8653 24.1981 16.458 24.1981 17.214C24.1981 17.6433 24.1048 18.04 23.9181 18.404C23.7408 18.7586 23.4841 19.0666 23.1481 19.328C22.8214 19.58 22.4248 19.7806 21.9581 19.93C21.5008 20.07 20.9968 20.14 20.4461 20.14C19.6714 20.14 18.9248 19.986 18.2061 19.678C17.4968 19.3606 16.8761 18.908 16.3441 18.32Z" fill="#FBC231"/>
</svg>
