<svg width="31" height="31" viewBox="0 0 31 31" fill="none" xmlns="http://www.w3.org/2000/svg">
<g id="Associate-Circle">
<circle id="Ellipse 81" cx="15.5" cy="15.5" r="15.5" fill="#EB7834"/>
<circle id="Ellipse 82" cx="15.5" cy="15.5" r="12.5" fill="white"/>
<path id="&#239;&#134;&#156;" d="M21.4062 20.7812H21.1875V19.25C21.1875 18.8945 20.8867 18.5938 20.5312 18.5938H20.0938V14.4375H18.7812V18.5938H17.4688V14.4375H16.1562V18.5938H14.8438V14.4375H13.5312V18.5938H12.2188V14.4375H10.9062V18.5938H10.4688C10.0859 18.5938 9.8125 18.8945 9.8125 19.25V20.7812H9.59375C9.21094 20.7812 8.9375 21.082 8.9375 21.4375V21.875C8.9375 22.0117 9.01953 22.0938 9.15625 22.0938H21.8438C21.9531 22.0938 22.0625 22.0117 22.0625 21.875V21.4375C22.0625 21.082 21.7617 20.7812 21.4062 20.7812ZM19.875 20.7812H11.125V19.9062H19.875V20.7812ZM21.8438 11.9766L15.9102 9.48828C15.8008 9.46094 15.6094 9.40625 15.5 9.40625C15.3633 9.40625 15.1719 9.46094 15.0625 9.48828L9.12891 11.9766C9.01953 12.0039 8.9375 12.1406 8.9375 12.2773V13.0156C8.9375 13.207 9.07422 13.3438 9.26562 13.3438H9.8125V13.6719C9.8125 13.8633 9.94922 14 10.1406 14H20.8594C21.0234 14 21.1875 13.8633 21.1875 13.6719V13.3438H21.7344C21.8984 13.3438 22.0625 13.207 22.0625 13.0156V12.2773C22.0625 12.1406 21.9531 12.0039 21.8438 11.9766ZM10.25 12.6875L15.5 10.7188L20.75 12.6875H10.25Z" fill="#EB7834"/>
</g>
</svg>
