<svg width="42" height="39" viewBox="0 0 42 39" fill="none" xmlns="http://www.w3.org/2000/svg">
<rect opacity="0.1" width="42" height="39" rx="15" fill="#0F75BC"/>
<path d="M20.9746 28.1387L21.7559 27.3965C21.9512 27.2012 21.9512 26.8887 21.7559 26.7324L15.7012 20.6777L29.0215 20.6777C29.2949 20.6777 29.4902 20.4434 29.4902 20.209L29.4902 19.1152C29.4902 18.8418 29.2949 18.6465 29.0215 18.6465L15.7012 18.6465L21.7559 12.5527C21.9512 12.3965 21.9512 12.084 21.7559 11.8887L20.9746 11.1465C20.8184 10.9512 20.5059 10.9512 20.3105 11.1465L12.1465 19.3105C11.9512 19.5059 11.9512 19.7793 12.1465 19.9746L20.3105 28.1387C20.5059 28.334 20.8184 28.334 20.9746 28.1387Z" fill="#0B66A6"/>
</svg>
