<svg width="176" height="174" viewBox="0 0 176 174" fill="none" xmlns="http://www.w3.org/2000/svg">
<g filter="url(#filter0_d)">
<ellipse cx="89.6035" cy="84.7172" rx="57.6035" ry="56.7172" fill="white"/>
</g>
<path d="M122 99C139.121 99 153 85.3447 153 68.5C153 51.6553 139.121 38 122 38" stroke="#49BDE8" stroke-width="10"/>
<rect x="76" y="95" width="80" height="10" rx="5" fill="#B2D7E3"/>
<g filter="url(#filter1_d)">
<path fill-rule="evenodd" clip-rule="evenodd" d="M60.6642 133.768C54.6302 130.309 49.2925 125.802 44.9085 120.5C36.8382 110.739 32 98.2846 32 84.7172C32 79.912 32.6069 75.2464 33.7494 70.7906L37.3298 72.8934C40.096 70.4096 43.1696 68.5467 46.7042 67.3048V59.6981C46.7042 58.9219 47.1653 58.1457 48.0873 57.9905C53.4661 56.7486 59.1522 56.5934 64.8383 57.9905C65.7604 58.1457 66.3751 58.9219 66.3751 59.6981V67.3048C69.7561 68.5467 72.8296 70.4096 75.5959 72.7381L82.2041 69.0124C82.9724 68.5467 83.8945 68.7019 84.5092 69.3229C88.1975 73.5143 91.1174 78.4819 92.8079 84.0705C93.1153 84.8467 92.8079 85.7781 92.0395 86.2439L85.4313 89.9696C86.1997 93.6953 86.1997 97.2658 85.4313 100.991L92.0395 104.717C92.8079 105.183 93.1153 106.114 92.9616 106.891C91.1174 112.479 88.3512 117.447 84.5092 121.638C83.8945 122.259 82.9724 122.414 82.2041 121.949L75.5959 118.223C72.8296 120.552 69.7561 122.414 66.3751 123.656V131.263C66.3751 132.039 65.7604 132.815 64.8383 133.126C63.4653 133.403 62.0722 133.62 60.6642 133.768ZM44.2454 95.4029C44.2454 102.389 49.6241 107.822 56.5397 107.822C63.3015 107.822 68.834 102.389 68.834 95.4029C68.834 88.5724 63.3015 82.9839 56.5397 82.9839C49.6241 82.9839 44.2454 88.5724 44.2454 95.4029Z" fill="url(#paint0_linear)"/>
</g>
<path d="M99 77H119V82C119 83.1046 118.105 84 117 84H101C99.8954 84 99 83.1046 99 82V77Z" fill="#1091C0"/>
<rect x="99" y="15" width="20" height="52" rx="5" fill="#49BDE8"/>
<g filter="url(#filter2_d)">
<rect x="93" y="20" width="33" height="58" rx="10" fill="url(#paint1_linear)"/>
</g>
<defs>
<filter id="filter0_d" x="0" y="0" width="175.207" height="173.434" filterUnits="userSpaceOnUse" color-interpolation-filters="sRGB">
<feFlood flood-opacity="0" result="BackgroundImageFix"/>
<feColorMatrix in="SourceAlpha" type="matrix" values="0 0 0 0 0 0 0 0 0 0 0 0 0 0 0 0 0 0 127 0"/>
<feOffset dx="-2" dy="2"/>
<feGaussianBlur stdDeviation="15"/>
<feColorMatrix type="matrix" values="0 0 0 0 0.376013 0 0 0 0 0.265938 0 0 0 0 0.4625 0 0 0 0.1 0"/>
<feBlend mode="normal" in2="BackgroundImageFix" result="effect1_dropShadow"/>
<feBlend mode="normal" in="SourceGraphic" in2="effect1_dropShadow" result="shape"/>
</filter>
<filter id="filter1_d" x="20" y="49" width="81" height="96.7682" filterUnits="userSpaceOnUse" color-interpolation-filters="sRGB">
<feFlood flood-opacity="0" result="BackgroundImageFix"/>
<feColorMatrix in="SourceAlpha" type="matrix" values="0 0 0 0 0 0 0 0 0 0 0 0 0 0 0 0 0 0 127 0"/>
<feOffset dx="-2" dy="2"/>
<feGaussianBlur stdDeviation="5"/>
<feColorMatrix type="matrix" values="0 0 0 0 0.376013 0 0 0 0 0.265938 0 0 0 0 0.4625 0 0 0 0.19 0"/>
<feBlend mode="normal" in2="BackgroundImageFix" result="effect1_dropShadow"/>
<feBlend mode="normal" in="SourceGraphic" in2="effect1_dropShadow" result="shape"/>
</filter>
<filter id="filter2_d" x="71" y="2" width="73" height="98" filterUnits="userSpaceOnUse" color-interpolation-filters="sRGB">
<feFlood flood-opacity="0" result="BackgroundImageFix"/>
<feColorMatrix in="SourceAlpha" type="matrix" values="0 0 0 0 0 0 0 0 0 0 0 0 0 0 0 0 0 0 127 0"/>
<feOffset dx="-2" dy="2"/>
<feGaussianBlur stdDeviation="10"/>
<feColorMatrix type="matrix" values="0 0 0 0 0.376013 0 0 0 0 0.265938 0 0 0 0 0.4625 0 0 0 0.1 0"/>
<feBlend mode="normal" in2="BackgroundImageFix" result="effect1_dropShadow"/>
<feBlend mode="normal" in="SourceGraphic" in2="effect1_dropShadow" result="shape"/>
</filter>
<linearGradient id="paint0_linear" x1="20" y1="121.808" x2="89.2802" y2="61.6325" gradientUnits="userSpaceOnUse">
<stop stop-color="#EB7834"/>
<stop offset="1" stop-color="#FF9E64"/>
</linearGradient>
<linearGradient id="paint1_linear" x1="125.886" y1="19.7417" x2="95.873" y2="88.9176" gradientUnits="userSpaceOnUse">
<stop stop-color="#6ACEF2"/>
<stop offset="1" stop-color="#4FC7F3"/>
</linearGradient>
</defs>
</svg>
