<svg width="31" height="31" viewBox="0 0 31 31" fill="none" xmlns="http://www.w3.org/2000/svg">
<circle cx="15.5" cy="15.5" r="15.5" fill="#00B934"/>
<circle cx="15.5" cy="15.5" r="12.5" fill="white"/>
<path d="M11.11 19.114C11.7167 19.114 12.2953 18.9973 12.846 18.764C13.3967 18.5213 13.8587 18.19 14.232 17.77L14.932 18.498C14.4467 19.002 13.868 19.3987 13.196 19.688C12.524 19.968 11.8193 20.108 11.082 20.108C10.3727 20.108 9.70533 19.9773 9.08 19.716C8.464 19.4547 7.92733 19.1 7.47 18.652C7.01267 18.1947 6.65333 17.658 6.392 17.042C6.13067 16.4167 6 15.754 6 15.054C6 14.354 6.13067 13.696 6.392 13.08C6.65333 12.4547 7.01267 11.918 7.47 11.47C7.92733 11.0127 8.464 10.6533 9.08 10.392C9.70533 10.1307 10.3727 10 11.082 10C11.838 10 12.552 10.1447 13.224 10.434C13.9053 10.714 14.484 11.106 14.96 11.61L14.246 12.366C13.8633 11.9367 13.3873 11.6007 12.818 11.358C12.258 11.1153 11.6793 10.994 11.082 10.994C10.522 10.994 9.99467 11.1013 9.5 11.316C9.01467 11.5213 8.59467 11.806 8.24 12.17C7.88533 12.5247 7.60533 12.954 7.4 13.458C7.19467 13.9527 7.092 14.4847 7.092 15.054C7.092 15.6233 7.19467 16.16 7.4 16.664C7.60533 17.1587 7.88533 17.588 8.24 17.952C8.604 18.3067 9.02867 18.5913 9.514 18.806C10.0087 19.0113 10.5407 19.114 11.11 19.114Z" fill="#00B934"/>
<path d="M15.5435 19.954L19.6175 10.154H20.9195L24.9375 19.954H23.7615L22.5295 16.874H17.9095L16.6635 19.954H15.5435ZM18.2875 15.95H22.1515L20.2335 11.162L18.2875 15.95Z" fill="#00B934"/>
</svg>
