<svg width="47" height="62" viewBox="0 0 47 62" fill="none" xmlns="http://www.w3.org/2000/svg">
<g filter="url(#filter0_d)">
<path fill-rule="evenodd" clip-rule="evenodd" d="M38.0863 23.7556C38.6777 22.1145 39 20.3449 39 18.5C39 9.93959 32.0604 3 23.5 3C14.9396 3 8 9.93959 8 18.5C8 20.3449 8.32232 22.1145 8.91371 23.7556C11.552 32.3747 19.2632 43.3065 23.5 48.5C27.7368 43.3065 35.448 32.3747 38.0863 23.7556Z" fill="#00B934"/>
</g>
<circle cx="23.5" cy="18.5" r="12.5" fill="white"/>
<path d="M19.4235 22.16C20.0301 22.16 20.6088 22.0434 21.1595 21.81C21.7101 21.5674 22.1721 21.236 22.5455 20.816L23.2455 21.544C22.7601 22.048 22.1815 22.4447 21.5095 22.734C20.8375 23.014 20.1328 23.154 19.3955 23.154C18.6861 23.154 18.0188 23.0234 17.3935 22.762C16.7775 22.5007 16.2408 22.146 15.7835 21.698C15.3261 21.2407 14.9668 20.704 14.7055 20.088C14.4441 19.4627 14.3135 18.8 14.3135 18.1C14.3135 17.4 14.4441 16.742 14.7055 16.126C14.9668 15.5007 15.3261 14.964 15.7835 14.516C16.2408 14.0587 16.7775 13.6994 17.3935 13.438C18.0188 13.1767 18.6861 13.046 19.3955 13.046C20.1515 13.046 20.8655 13.1907 21.5375 13.48C22.2188 13.76 22.7975 14.152 23.2735 14.656L22.5595 15.412C22.1768 14.9827 21.7008 14.6467 21.1315 14.404C20.5715 14.1614 19.9928 14.04 19.3955 14.04C18.8355 14.04 18.3081 14.1474 17.8135 14.362C17.3281 14.5674 16.9081 14.852 16.5535 15.216C16.1988 15.5707 15.9188 16 15.7135 16.504C15.5081 16.9987 15.4055 17.5307 15.4055 18.1C15.4055 18.6694 15.5081 19.206 15.7135 19.71C15.9188 20.2047 16.1988 20.634 16.5535 20.998C16.9175 21.3527 17.3421 21.6374 17.8275 21.852C18.3221 22.0574 18.8541 22.16 19.4235 22.16Z" fill="#00B934"/>
<path d="M23.857 23L27.931 13.2H29.233L33.251 23H32.075L30.843 19.92H26.223L24.977 23H23.857ZM26.601 18.996H30.465L28.547 14.208L26.601 18.996Z" fill="#00B934"/>
<defs>
<filter id="filter0_d" x="0" y="0" width="47" height="61.5" filterUnits="userSpaceOnUse" color-interpolation-filters="sRGB">
<feFlood flood-opacity="0" result="BackgroundImageFix"/>
<feColorMatrix in="SourceAlpha" type="matrix" values="0 0 0 0 0 0 0 0 0 0 0 0 0 0 0 0 0 0 127 0" result="hardAlpha"/>
<feOffset dy="5"/>
<feGaussianBlur stdDeviation="4"/>
<feColorMatrix type="matrix" values="0 0 0 0 0.0823529 0 0 0 0 0.219686 0 0 0 0 0.486275 0 0 0 0.44 0"/>
<feBlend mode="normal" in2="BackgroundImageFix" result="effect1_dropShadow"/>
<feBlend mode="normal" in="SourceGraphic" in2="effect1_dropShadow" result="shape"/>
</filter>
</defs>
</svg>
