<svg width="158" height="131" viewBox="0 0 158 131" fill="none" xmlns="http://www.w3.org/2000/svg">
<g filter="url(#filter0_d)">
<path d="M83.0527 54.4778L76.535 50.8489C77.2929 47.2199 77.2929 43.7422 76.535 40.1132L83.0527 36.4843C83.8105 36.0307 84.1137 35.1234 83.8105 34.3674C82.1432 28.924 79.2633 24.0854 75.6255 20.0028C75.0193 19.398 74.1098 19.2468 73.3519 19.7004L66.8343 23.3294C64.1059 21.0613 61.0745 19.2468 57.7399 18.0371V10.628C57.7399 9.87201 57.1336 9.11598 56.2241 8.96477C50.6159 7.60392 45.0077 7.75512 39.7026 8.96477C38.7931 9.11598 38.3384 9.87201 38.3384 10.628V18.0371C34.8522 19.2468 31.8207 21.0613 29.0924 23.4806L22.5748 19.7004C21.8169 19.2468 20.9074 19.398 20.3011 20.0028C16.6634 24.0854 13.7835 28.924 12.1162 34.3674C11.813 35.1234 12.1162 36.0307 12.874 36.4843L19.3917 40.1132C18.7854 43.7422 18.7854 47.2199 19.3917 50.8489L12.874 54.4778C12.1162 54.9314 11.813 55.8387 12.1162 56.5947C13.7835 62.0381 16.6634 66.8767 20.3011 70.9593C20.9074 71.5641 21.8169 71.7153 22.5748 71.2617L29.0924 67.6327C31.8207 69.9008 34.8522 71.7153 38.3384 72.925V80.3341C38.3384 81.0901 38.9447 81.8461 39.7026 82.1485C45.3108 83.3582 50.919 83.207 56.2241 82.1485C57.1336 81.8461 57.7399 81.0901 57.7399 80.3341V72.925C61.0745 71.7153 64.1059 69.9008 66.8343 67.6327L73.3519 71.2617C74.1098 71.7153 75.0193 71.5641 75.6255 70.9593C79.4149 66.8767 82.1432 62.0381 83.9621 56.5947C84.1137 55.8387 83.8105 54.9314 83.0527 54.4778ZM48.0391 57.5019C41.2183 57.5019 35.9132 52.2097 35.9132 45.4054C35.9132 38.7524 41.2183 33.309 48.0391 33.309C54.7084 33.309 60.165 38.7524 60.165 45.4054C60.165 52.2097 54.7084 57.5019 48.0391 57.5019Z" fill="url(#paint0_linear)"/>
</g>
<g filter="url(#filter1_d)">
<path d="M114.355 99.6049L109.92 97.1372C110.435 94.6695 110.435 92.3047 109.92 89.837L114.355 87.3693C114.871 87.0609 115.077 86.4439 114.871 85.9298C113.736 82.2283 111.776 78.9381 109.301 76.1619C108.888 75.7506 108.269 75.6478 107.753 75.9563L103.318 78.424C101.461 76.8817 99.3979 75.6478 97.1285 74.8253V69.7871C97.1285 69.273 96.7159 68.7589 96.097 68.656C92.2803 67.7307 88.4635 67.8335 84.8531 68.656C84.2342 68.7589 83.9248 69.273 83.9248 69.7871V74.8253C81.5522 75.6478 79.4891 76.8817 77.6323 78.5268L73.1967 75.9563C72.6809 75.6478 72.062 75.7506 71.6494 76.1619C69.1737 78.9381 67.2138 82.2283 66.0791 85.9298C65.8727 86.4439 66.0791 87.0609 66.5948 87.3693L71.0305 89.837C70.6178 92.3047 70.6178 94.6695 71.0305 97.1372L66.5948 99.6049C66.0791 99.9134 65.8727 100.53 66.0791 101.044C67.2138 104.746 69.1737 108.036 71.6494 110.812C72.062 111.224 72.6809 111.326 73.1967 111.018L77.6323 108.55C79.4891 110.093 81.5522 111.326 83.9248 112.149V117.187C83.9248 117.701 84.3374 118.215 84.8531 118.421C88.6699 119.244 92.4866 119.141 96.097 118.421C96.7159 118.215 97.1285 117.701 97.1285 117.187V112.149C99.3979 111.326 101.461 110.093 103.318 108.55L107.753 111.018C108.269 111.326 108.888 111.224 109.301 110.812C111.88 108.036 113.736 104.746 114.974 101.044C115.077 100.53 114.871 99.9134 114.355 99.6049ZM90.5266 101.661C85.8847 101.661 82.2743 98.0626 82.2743 93.4357C82.2743 88.9116 85.8847 85.2101 90.5266 85.2101C95.0654 85.2101 98.779 88.9116 98.779 93.4357C98.779 98.0626 95.0654 101.661 90.5266 101.661Z" fill="url(#paint1_linear)"/>
</g>
<g filter="url(#filter2_d)">
<path d="M149.355 59.6049L144.92 57.1372C145.435 54.6695 145.435 52.3047 144.92 49.837L149.355 47.3693C149.871 47.0609 150.077 46.4439 149.871 45.9298C148.736 42.2283 146.776 38.9381 144.301 36.1619C143.888 35.7506 143.269 35.6478 142.753 35.9563L138.318 38.424C136.461 36.8817 134.398 35.6478 132.129 34.8253V29.7871C132.129 29.273 131.716 28.7589 131.097 28.656C127.28 27.7307 123.464 27.8335 119.853 28.656C119.234 28.7589 118.925 29.273 118.925 29.7871V34.8253C116.552 35.6478 114.489 36.8817 112.632 38.5268L108.197 35.9563C107.681 35.6478 107.062 35.7506 106.649 36.1619C104.174 38.9381 102.214 42.2283 101.079 45.9298C100.873 46.4439 101.079 47.0609 101.595 47.3693L106.03 49.837C105.618 52.3047 105.618 54.6695 106.03 57.1372L101.595 59.6049C101.079 59.9134 100.873 60.5303 101.079 61.0444C102.214 64.7459 104.174 68.0362 106.649 70.8123C107.062 71.2236 107.681 71.3264 108.197 71.0179L112.632 68.5503C114.489 70.0926 116.552 71.3264 118.925 72.149V77.1872C118.925 77.7013 119.337 78.2154 119.853 78.421C123.67 79.2436 127.487 79.1407 131.097 78.421C131.716 78.2154 132.129 77.7013 132.129 77.1872V72.149C134.398 71.3264 136.461 70.0926 138.318 68.5503L142.753 71.0179C143.269 71.3264 143.888 71.2236 144.301 70.8123C146.88 68.0362 148.736 64.7459 149.974 61.0444C150.077 60.5303 149.871 59.9134 149.355 59.6049ZM125.527 61.6613C120.885 61.6613 117.274 58.0626 117.274 53.4357C117.274 48.9116 120.885 45.2101 125.527 45.2101C130.065 45.2101 133.779 48.9116 133.779 53.4357C133.779 58.0626 130.065 61.6613 125.527 61.6613Z" fill="url(#paint2_linear)"/>
</g>
<defs>
<filter id="filter0_d" x="0" y="0" width="92" height="95" filterUnits="userSpaceOnUse" color-interpolation-filters="sRGB">
<feFlood flood-opacity="0" result="BackgroundImageFix"/>
<feColorMatrix in="SourceAlpha" type="matrix" values="0 0 0 0 0 0 0 0 0 0 0 0 0 0 0 0 0 0 127 0"/>
<feOffset dx="-2" dy="2"/>
<feGaussianBlur stdDeviation="5"/>
<feColorMatrix type="matrix" values="0 0 0 0 0.376013 0 0 0 0 0.265938 0 0 0 0 0.4625 0 0 0 0.19 0"/>
<feBlend mode="normal" in2="BackgroundImageFix" result="effect1_dropShadow"/>
<feBlend mode="normal" in="SourceGraphic" in2="effect1_dropShadow" result="shape"/>
</filter>
<filter id="filter1_d" x="54" y="60" width="69" height="71" filterUnits="userSpaceOnUse" color-interpolation-filters="sRGB">
<feFlood flood-opacity="0" result="BackgroundImageFix"/>
<feColorMatrix in="SourceAlpha" type="matrix" values="0 0 0 0 0 0 0 0 0 0 0 0 0 0 0 0 0 0 127 0"/>
<feOffset dx="-2" dy="2"/>
<feGaussianBlur stdDeviation="5"/>
<feColorMatrix type="matrix" values="0 0 0 0 0.376013 0 0 0 0 0.265938 0 0 0 0 0.4625 0 0 0 0.19 0"/>
<feBlend mode="normal" in2="BackgroundImageFix" result="effect1_dropShadow"/>
<feBlend mode="normal" in="SourceGraphic" in2="effect1_dropShadow" result="shape"/>
</filter>
<filter id="filter2_d" x="89" y="20" width="69" height="71" filterUnits="userSpaceOnUse" color-interpolation-filters="sRGB">
<feFlood flood-opacity="0" result="BackgroundImageFix"/>
<feColorMatrix in="SourceAlpha" type="matrix" values="0 0 0 0 0 0 0 0 0 0 0 0 0 0 0 0 0 0 127 0"/>
<feOffset dx="-2" dy="2"/>
<feGaussianBlur stdDeviation="5"/>
<feColorMatrix type="matrix" values="0 0 0 0 0.376013 0 0 0 0 0.265938 0 0 0 0 0.4625 0 0 0 0.19 0"/>
<feBlend mode="normal" in2="BackgroundImageFix" result="effect1_dropShadow"/>
<feBlend mode="normal" in="SourceGraphic" in2="effect1_dropShadow" result="shape"/>
</filter>
<linearGradient id="paint0_linear" x1="48" y1="8" x2="48" y2="83" gradientUnits="userSpaceOnUse">
<stop stop-color="#4FC7F3"/>
<stop offset="1" stop-color="#3CAFE3"/>
</linearGradient>
<linearGradient id="paint1_linear" x1="66" y1="124.737" x2="140.451" y2="55.0407" gradientUnits="userSpaceOnUse">
<stop offset="0.0328274" stop-color="#8DE0FF"/>
<stop offset="1" stop-color="#6FFFE1"/>
</linearGradient>
<linearGradient id="paint2_linear" x1="97.5" y1="79" x2="162.814" y2="76.9503" gradientUnits="userSpaceOnUse">
<stop stop-color="#ADEB5C"/>
<stop offset="1" stop-color="#61D5FF"/>
</linearGradient>
</defs>
</svg>
