<svg width="31" height="31" viewBox="0 0 31 31" fill="none" xmlns="http://www.w3.org/2000/svg">
<circle cx="15.5" cy="15.5" r="15.5" fill="#FEA0E9"/>
<circle cx="15.5" cy="15.5" r="12.5" fill="white"/>
<path d="M15.5 13.7812C14.4062 13.7812 13.5312 14.6836 13.5312 15.75C13.5312 16.8438 14.4062 17.7188 15.5 17.7188C16.5664 17.7188 17.4688 16.8438 17.4688 15.75C17.4688 14.6836 16.5664 13.7812 15.5 13.7812ZM15.5 16.4062C15.1172 16.4062 14.8438 16.1328 14.8438 15.75C14.8438 15.3945 15.1172 15.0938 15.5 15.0938C15.8555 15.0938 16.1562 15.3945 16.1562 15.75C16.1562 16.1328 15.8555 16.4062 15.5 16.4062ZM20.3125 13.7812C19.2188 13.7812 18.3438 14.6836 18.3438 15.75C18.3438 16.8438 19.2188 17.7188 20.3125 17.7188C21.3789 17.7188 22.2812 16.8438 22.2812 15.75C22.2812 14.6836 21.3789 13.7812 20.3125 13.7812ZM20.3125 16.4062C19.9297 16.4062 19.6562 16.1328 19.6562 15.75C19.6562 15.3945 19.9297 15.0938 20.3125 15.0938C20.668 15.0938 20.9688 15.3945 20.9688 15.75C20.9688 16.1328 20.668 16.4062 20.3125 16.4062ZM10.6875 13.7812C9.59375 13.7812 8.71875 14.6836 8.71875 15.75C8.71875 16.8438 9.59375 17.7188 10.6875 17.7188C11.7539 17.7188 12.6562 16.8438 12.6562 15.75C12.6562 14.6836 11.7539 13.7812 10.6875 13.7812ZM10.6875 16.4062C10.3047 16.4062 10.0312 16.1328 10.0312 15.75C10.0312 15.3945 10.3047 15.0938 10.6875 15.0938C11.043 15.0938 11.3438 15.3945 11.3438 15.75C11.3438 16.1328 11.043 16.4062 10.6875 16.4062Z" fill="#FEA0E9"/>
</svg>
