<svg width="47" height="62" viewBox="0 0 47 62" fill="none" xmlns="http://www.w3.org/2000/svg">
<g filter="url(#filter0_d)">
<path fill-rule="evenodd" clip-rule="evenodd" d="M38.0863 23.7556C38.6777 22.1145 39 20.3449 39 18.5C39 9.93959 32.0604 3 23.5 3C14.9396 3 8 9.93959 8 18.5C8 20.3449 8.32232 22.1145 8.91371 23.7556C11.552 32.3747 19.2632 43.3065 23.5 48.5C27.7368 43.3065 35.448 32.3747 38.0863 23.7556Z" fill="#D91B5C"/>
</g>
<circle cx="23.5" cy="18.5" r="12.5" fill="white"/>
<path d="M33.3438 16.5312L30.5 11.5312C30.3125 11.2188 30 11 29.625 11H17.3438C17 11 16.6562 11.2188 16.4688 11.5312L13.625 16.5312C13.25 17.1875 13.7188 18 14.5 18H15.5V25.9062C15.5 26.5312 15.9375 27 16.5 27H24.5C25.0312 27 25.5 26.5312 25.5 25.9062V18H30V26.5C30 26.7812 30.2188 27 30.5 27H31C31.25 27 31.5 26.7812 31.5 26.5V18H32.5C33.25 18 33.7188 17.1875 33.3438 16.5312ZM24 25.5H17V22.5312H24V25.5ZM24 21.0312H17V18H24V21.0312ZM15.3438 16.5L17.625 12.5H29.3438L31.625 16.5H15.3438Z" fill="#D91B5C"/>
<defs>
<filter id="filter0_d" x="0" y="0" width="47" height="61.5" filterUnits="userSpaceOnUse" color-interpolation-filters="sRGB">
<feFlood flood-opacity="0" result="BackgroundImageFix"/>
<feColorMatrix in="SourceAlpha" type="matrix" values="0 0 0 0 0 0 0 0 0 0 0 0 0 0 0 0 0 0 127 0"/>
<feOffset dy="5"/>
<feGaussianBlur stdDeviation="4"/>
<feColorMatrix type="matrix" values="0 0 0 0 0.0823529 0 0 0 0 0.219686 0 0 0 0 0.486275 0 0 0 0.44 0"/>
<feBlend mode="normal" in2="BackgroundImageFix" result="effect1_dropShadow"/>
<feBlend mode="normal" in="SourceGraphic" in2="effect1_dropShadow" result="shape"/>
</filter>
</defs>
</svg>
