<svg width="47" height="62" viewBox="0 0 47 62" fill="none" xmlns="http://www.w3.org/2000/svg">
<g filter="url(#filter0_d)">
<path fill-rule="evenodd" clip-rule="evenodd" d="M38.0863 23.7556C38.6777 22.1145 39 20.3449 39 18.5C39 9.93959 32.0604 3 23.5 3C14.9396 3 8 9.93959 8 18.5C8 20.3449 8.32232 22.1145 8.91371 23.7556C11.552 32.3747 19.2632 43.3065 23.5 48.5C27.7368 43.3065 35.448 32.3747 38.0863 23.7556Z" fill="#D5A0FE"/>
</g>
<circle cx="23.5" cy="18.5" r="12.5" fill="white"/>
<path d="M14.405 21.32L15.119 20.578C15.623 21.11 16.1596 21.516 16.729 21.796C17.3076 22.0667 17.9143 22.202 18.549 22.202C19.3143 22.202 19.9443 22.02 20.439 21.656C20.9336 21.292 21.181 20.83 21.181 20.27C21.181 19.766 21.0036 19.3787 20.649 19.108C20.3036 18.8373 19.7296 18.6367 18.927 18.506L17.513 18.282C16.5703 18.1327 15.875 17.8573 15.427 17.456C14.979 17.0453 14.755 16.4947 14.755 15.804C14.755 14.992 15.0723 14.334 15.707 13.83C16.3416 13.326 17.1723 13.074 18.199 13.074C18.8803 13.074 19.557 13.186 20.229 13.41C20.901 13.634 21.5123 13.956 22.063 14.376L21.447 15.216C20.915 14.8147 20.3736 14.5113 19.823 14.306C19.2723 14.1007 18.717 13.998 18.157 13.998C17.457 13.998 16.8876 14.1613 16.449 14.488C16.0196 14.8053 15.805 15.216 15.805 15.72C15.805 16.1773 15.959 16.5273 16.267 16.77C16.575 17.0127 17.0836 17.19 17.793 17.302L19.193 17.526C20.257 17.7033 21.0316 18.0067 21.517 18.436C22.0116 18.8653 22.259 19.458 22.259 20.214C22.259 20.6433 22.1656 21.04 21.979 21.404C21.8016 21.7587 21.545 22.0667 21.209 22.328C20.8823 22.58 20.4856 22.7807 20.019 22.93C19.5616 23.07 19.0576 23.14 18.507 23.14C17.7323 23.14 16.9856 22.986 16.267 22.678C15.5576 22.3607 14.937 21.908 14.405 21.32ZM28.3715 22.16C28.9782 22.16 29.5568 22.0433 30.1075 21.81C30.6582 21.5673 31.1202 21.236 31.4935 20.816L32.1935 21.544C31.7082 22.048 31.1295 22.4447 30.4575 22.734C29.7855 23.014 29.0808 23.154 28.3435 23.154C27.6342 23.154 26.9668 23.0233 26.3415 22.762C25.7255 22.5007 25.1888 22.146 24.7315 21.698C24.2742 21.2407 23.9148 20.704 23.6535 20.088C23.3922 19.4627 23.2615 18.8 23.2615 18.1C23.2615 17.4 23.3922 16.742 23.6535 16.126C23.9148 15.5007 24.2742 14.964 24.7315 14.516C25.1888 14.0587 25.7255 13.6993 26.3415 13.438C26.9668 13.1767 27.6342 13.046 28.3435 13.046C29.0995 13.046 29.8135 13.1907 30.4855 13.48C31.1668 13.76 31.7455 14.152 32.2215 14.656L31.5075 15.412C31.1248 14.9827 30.6488 14.6467 30.0795 14.404C29.5195 14.1613 28.9408 14.04 28.3435 14.04C27.7835 14.04 27.2562 14.1473 26.7615 14.362C26.2762 14.5673 25.8562 14.852 25.5015 15.216C25.1468 15.5707 24.8668 16 24.6615 16.504C24.4562 16.9987 24.3535 17.5307 24.3535 18.1C24.3535 18.6693 24.4562 19.206 24.6615 19.71C24.8668 20.2047 25.1468 20.634 25.5015 20.998C25.8655 21.3527 26.2902 21.6373 26.7755 21.852C27.2702 22.0573 27.8022 22.16 28.3715 22.16Z" fill="#D5A0FE"/>
<defs>
<filter id="filter0_d" x="0" y="0" width="47" height="61.5" filterUnits="userSpaceOnUse" color-interpolation-filters="sRGB">
<feFlood flood-opacity="0" result="BackgroundImageFix"/>
<feColorMatrix in="SourceAlpha" type="matrix" values="0 0 0 0 0 0 0 0 0 0 0 0 0 0 0 0 0 0 127 0"/>
<feOffset dy="5"/>
<feGaussianBlur stdDeviation="4"/>
<feColorMatrix type="matrix" values="0 0 0 0 0.0823529 0 0 0 0 0.219686 0 0 0 0 0.486275 0 0 0 0.44 0"/>
<feBlend mode="normal" in2="BackgroundImageFix" result="effect1_dropShadow"/>
<feBlend mode="normal" in="SourceGraphic" in2="effect1_dropShadow" result="shape"/>
</filter>
</defs>
</svg>
