<svg width="121" height="105" viewBox="0 0 121 105" fill="none" xmlns="http://www.w3.org/2000/svg">
<path fill-rule="evenodd" clip-rule="evenodd" d="M96.8059 96H108.819C115.546 96 121 90.5098 121 83.7372V66.4937V66.2278H120.999C120.857 53.2842 110.391 42.8354 97.5 42.8354C84.6094 42.8354 74.143 53.2842 74.0015 66.2278H74V66.4937V83.7372C74 90.5098 79.4535 96 86.1808 96H96.8059ZM111.76 27.0219C111.76 35.3183 105.216 42.0438 97.1434 42.0438C89.0707 42.0438 82.5265 35.3183 82.5265 27.0219C82.5265 18.7255 89.0707 12 97.1434 12C105.216 12 111.76 18.7255 111.76 27.0219Z" fill="url(#paint0_linear)"/>
<path d="M103.167 15.1965C95.0337 25.3367 85.9151 26.4634 82.218 25.7592C77.905 24.9377 76.3639 8.25536 87.7628 9.46252C92.4457 1.73669 101.936 3.1249 105.016 7.95357C113.026 7.04818 114.156 13.6876 113.026 16.7055C120.112 19.1198 119.188 29.3807 113.026 31.795C108.097 33.7265 104.4 21.5341 103.167 15.1965Z" fill="#4FC7F3"/>
<path fill-rule="evenodd" clip-rule="evenodd" d="M23.1434 40.0438C31.2161 40.0438 37.7604 33.3183 37.7604 25.0219C37.7604 16.7255 31.2161 10 23.1434 10C15.0707 10 8.52653 16.7255 8.52653 25.0219C8.52653 33.3183 15.0707 40.0438 23.1434 40.0438ZM47 81.7372V64.4937V64.2278H46.9985C46.857 51.2842 36.3906 40.8354 23.5 40.8354C10.6094 40.8354 0.142998 51.2842 0.0014528 64.2278H0V64.4937V81.7372C0 88.5098 5.45351 94 12.1808 94H34.8192C41.5465 94 47 88.5098 47 81.7372Z" fill="#4FC7F3"/>
<path d="M20.8378 5.77072C26.9489 5.67699 32.3341 9.92293 35.1653 13.4023C35.7096 14.0712 35.3196 15.0358 34.4738 15.2041C25.8763 16.9153 11.3245 19.0052 10.3602 15.8477C9.06837 11.6177 12.6609 5.89615 20.8378 5.77072Z" fill="#FBD431"/>
<path fill-rule="evenodd" clip-rule="evenodd" d="M60.7303 50.1266C69.0705 50.1266 75.8315 43.3825 75.8315 35.0633C75.8315 26.7441 69.0705 20 60.7303 20C52.3902 20 45.6292 26.7441 45.6292 35.0633C45.6292 43.3825 52.3902 50.1266 60.7303 50.1266ZM85 94.2405V75.1424V74.8734H84.9985C84.854 61.7757 74.1648 51.2025 61 51.2025C47.8352 51.2025 37.146 61.7757 37.0015 74.8734H37V75.1424V94.2405C37 100.183 41.8293 105 47.7865 105H74.2135C80.1707 105 85 100.183 85 94.2405Z" fill="#A2CD6A"/>
<path fill-rule="evenodd" clip-rule="evenodd" d="M48.8182 49.3123C47.0487 50.2527 45.511 50.0513 44.1282 49.7432C42.9255 49.4751 42 48.3624 42 47.1187V44.8533C42 44.0672 42.5106 43.3742 43.2562 43.1484C44.0993 42.8929 44.6249 42.0531 44.4977 41.1735C43.1007 31.5108 42.1954 16.1033 65.7273 18.1923C65.7273 24.1079 62.66 25.5761 59.4396 27.1176C56.6631 28.4466 53.7728 29.8301 52.6364 34.1654C51.8844 37.0339 51.9131 39.5298 51.9377 41.6721C51.9771 45.097 52.006 47.618 48.8182 49.3123ZM74.1818 49.3122C75.9513 50.2527 77.489 50.0513 78.8718 49.7431C80.0745 49.4751 81 48.3624 81 47.1187V44.8532C81 44.0672 80.4894 43.3742 79.7438 43.1483C78.9007 42.8929 78.3786 42.0509 78.4648 41.1663C79.3787 31.7808 76.0598 18.9749 65.7273 18.1923C65.7273 25.4564 67.8654 27.8107 69.6323 29.7562C70.5449 30.7611 71.3585 31.6569 71.7273 33.0638C72.5443 36.1805 72.2014 39.0499 71.9044 41.5353C71.491 44.9944 71.1665 47.7097 74.1818 49.3122Z" fill="url(#paint1_linear)"/>
<defs>
<linearGradient id="paint0_linear" x1="97.5" y1="12" x2="97.5" y2="96" gradientUnits="userSpaceOnUse">
<stop stop-color="#E7C8FF"/>
<stop offset="1" stop-color="#D5A0FE"/>
</linearGradient>
<linearGradient id="paint1_linear" x1="81" y1="52.9674" x2="51.9855" y2="59.0066" gradientUnits="userSpaceOnUse">
<stop stop-color="#0F7ECC"/>
<stop offset="0.640625" stop-color="#4694CB"/>
</linearGradient>
</defs>
</svg>
