<svg width="31" height="31" viewBox="0 0 31 31" fill="none" xmlns="http://www.w3.org/2000/svg">
<g id="Doctoral-circle">
<circle id="Ellipse 78" cx="15.5" cy="15.5" r="15.5" fill="#FBD431"/>
<circle id="Ellipse 4" cx="15.5" cy="15.5" r="12.5" fill="white"/>
<path id="&#239;&#134;&#157;" d="M23.3203 12.7969L16.2656 10.6367C15.7461 10.4727 15.2266 10.4727 14.707 10.6367L7.65234 12.7969C7.10547 12.9883 6.75 13.4531 6.75 14.0273C6.75 14.5742 7.10547 15.0391 7.65234 15.2305L8.25391 15.4219C8.19922 15.5586 8.14453 15.6953 8.11719 15.8594C7.81641 15.9961 7.625 16.2969 7.625 16.6523C7.625 16.9258 7.76172 17.1719 7.98047 17.3359L7.29688 20.4805C7.24219 20.7539 7.43359 21 7.70703 21H9.26562C9.53906 21 9.73047 20.7539 9.67578 20.4805L8.99219 17.3359C9.21094 17.1719 9.375 16.9258 9.375 16.6523C9.375 16.3516 9.21094 16.1055 8.99219 15.9414C9.01953 15.8594 9.07422 15.75 9.12891 15.668L10.6328 16.1328L10.25 19.25C10.25 20.2344 12.5742 21 15.5 21C18.3984 21 20.75 20.2344 20.75 19.25L20.3398 16.1328L23.3203 15.2305C23.8672 15.0391 24.25 14.5742 24.25 14.0273C24.25 13.4531 23.8672 12.9883 23.3203 12.7969ZM19.3828 19.0039C17.7422 19.9336 13.2031 19.9336 11.5898 19.0039L11.8906 16.543L14.707 17.3906C15.0078 17.5 15.582 17.6094 16.2656 17.3906L19.082 16.543L19.3828 19.0039ZM15.8828 16.1328C15.6367 16.2148 15.3359 16.2148 15.0898 16.1328L10.9609 14.875L15.5547 14C15.8008 13.9727 15.9648 13.7266 15.9102 13.5078C15.8828 13.2617 15.6367 13.0977 15.418 13.1523L9.83984 14.1914C9.64844 14.2188 9.48438 14.3008 9.32031 14.3555L8.19922 14L15.0898 11.8945C15.3359 11.8125 15.6367 11.8125 15.8828 11.8945L22.7734 14.0273L15.8828 16.1328Z" fill="#FBC231"/>
</g>
</svg>
