<svg width="31" height="31" viewBox="0 0 31 31" fill="none" xmlns="http://www.w3.org/2000/svg">
<circle cx="15.5" cy="15.5" r="15.5" fill="#BE1BD9"/>
<circle cx="15.5" cy="15.5" r="12.5" fill="white"/>
<path d="M12.7461 17.9238C11.9551 17.9238 11.75 18.1875 10.8125 18.1875C9.875 18.1875 9.66992 17.9238 8.84961 17.9238C6.74023 17.9238 6.125 19.6816 6.125 20.6191V21.7031C6.125 22.377 6.62305 22.875 7.29688 22.875H14.3281C14.9727 22.875 15.5 22.377 15.5 21.7031V20.6191C15.5 19.3594 14.5918 17.9238 12.7461 17.9238ZM14.0938 21.4688H7.53125V20.6191C7.53125 20.209 7.76562 19.3301 8.84961 19.3301C9.34766 19.3301 9.69922 19.5938 10.8125 19.5938C11.8965 19.5938 12.248 19.3301 12.7461 19.3301C13.8301 19.3301 14.0938 20.209 14.0938 20.6191V21.4688ZM10.8125 17.25C12.3652 17.25 13.625 16.0195 13.625 14.4375C13.625 12.8848 12.3652 11.625 10.8125 11.625C9.23047 11.625 8 12.8848 8 14.4375C8 16.0195 9.23047 17.25 10.8125 17.25ZM10.8125 13.0312C11.5742 13.0312 12.2188 13.6758 12.2188 14.4375C12.2188 15.2285 11.5742 15.8438 10.8125 15.8438C10.0215 15.8438 9.40625 15.2285 9.40625 14.4375C9.40625 13.6758 10.0215 13.0312 10.8125 13.0312ZM23.4688 7.875H12.2188C11.4277 7.875 10.8125 8.54883 10.8125 9.33984V10.6875C11.0762 10.6875 11.75 10.8047 12.2188 10.9805V9.28125H23.4688V18.6562H22.0625V17.25C22.0625 16.752 21.623 16.3125 21.125 16.3125H17.375C16.8477 16.3125 16.4375 16.752 16.4375 17.25V20.0625H23.4688C24.2305 20.0625 24.875 19.418 24.875 18.627V9.33984C24.875 8.54883 24.2305 7.875 23.4688 7.875ZM20.6562 18.6562H17.8438V17.7188H20.6562V18.6562Z" fill="#BE1BD9"/>
</svg>
