<svg width="47" height="62" viewBox="0 0 47 62" fill="none" xmlns="http://www.w3.org/2000/svg">
<g filter="url(#filter0_d)">
<path fill-rule="evenodd" clip-rule="evenodd" d="M38.0863 23.7556C38.6777 22.1145 39 20.3449 39 18.5C39 9.93959 32.0604 3 23.5 3C14.9396 3 8 9.93959 8 18.5C8 20.3449 8.32232 22.1145 8.91371 23.7556C11.552 32.3747 19.2632 43.3065 23.5 48.5C27.7368 43.3065 35.448 32.3747 38.0863 23.7556Z" fill="#BE1BD9"/>
</g>
<circle cx="23.5" cy="18.5" r="12.5" fill="white"/>
<path d="M20.7461 20.9238C19.9551 20.9238 19.75 21.1875 18.8125 21.1875C17.875 21.1875 17.6699 20.9238 16.8496 20.9238C14.7402 20.9238 14.125 22.6816 14.125 23.6191V24.7031C14.125 25.377 14.623 25.875 15.2969 25.875H22.3281C22.9727 25.875 23.5 25.377 23.5 24.7031V23.6191C23.5 22.3594 22.5918 20.9238 20.7461 20.9238ZM22.0938 24.4688H15.5312V23.6191C15.5312 23.209 15.7656 22.3301 16.8496 22.3301C17.3477 22.3301 17.6992 22.5938 18.8125 22.5938C19.8965 22.5938 20.248 22.3301 20.7461 22.3301C21.8301 22.3301 22.0938 23.209 22.0938 23.6191V24.4688ZM18.8125 20.25C20.3652 20.25 21.625 19.0195 21.625 17.4375C21.625 15.8848 20.3652 14.625 18.8125 14.625C17.2305 14.625 16 15.8848 16 17.4375C16 19.0195 17.2305 20.25 18.8125 20.25ZM18.8125 16.0312C19.5742 16.0312 20.2188 16.6758 20.2188 17.4375C20.2188 18.2285 19.5742 18.8438 18.8125 18.8438C18.0215 18.8438 17.4062 18.2285 17.4062 17.4375C17.4062 16.6758 18.0215 16.0312 18.8125 16.0312ZM31.4688 10.875H20.2188C19.4277 10.875 18.8125 11.5488 18.8125 12.3398V13.6875C19.0762 13.6875 19.75 13.8047 20.2188 13.9805V12.2812H31.4688V21.6562H30.0625V20.25C30.0625 19.752 29.623 19.3125 29.125 19.3125H25.375C24.8477 19.3125 24.4375 19.752 24.4375 20.25V23.0625H31.4688C32.2305 23.0625 32.875 22.418 32.875 21.627V12.3398C32.875 11.5488 32.2305 10.875 31.4688 10.875ZM28.6562 21.6562H25.8438V20.7188H28.6562V21.6562Z" fill="#BE1BD9"/>
<defs>
<filter id="filter0_d" x="0" y="0" width="47" height="61.5" filterUnits="userSpaceOnUse" color-interpolation-filters="sRGB">
<feFlood flood-opacity="0" result="BackgroundImageFix"/>
<feColorMatrix in="SourceAlpha" type="matrix" values="0 0 0 0 0 0 0 0 0 0 0 0 0 0 0 0 0 0 127 0" result="hardAlpha"/>
<feOffset dy="5"/>
<feGaussianBlur stdDeviation="4"/>
<feColorMatrix type="matrix" values="0 0 0 0 0.0823529 0 0 0 0 0.219686 0 0 0 0 0.486275 0 0 0 0.44 0"/>
<feBlend mode="normal" in2="BackgroundImageFix" result="effect1_dropShadow"/>
<feBlend mode="normal" in="SourceGraphic" in2="effect1_dropShadow" result="shape"/>
</filter>
</defs>
</svg>
