<svg width="31" height="31" viewBox="0 0 31 31" fill="none" xmlns="http://www.w3.org/2000/svg">
<circle cx="15.5" cy="15.5" r="15.5" fill="#A2CD6A"/>
<circle cx="15.5" cy="15.5" r="12.5" fill="white"/>
<path d="M8.53223 20V10.2H15.5462V11.152H9.61023V14.652H13.5022V15.59H9.61023V20H8.53223Z" fill="#A2CD6A"/>
<path d="M16.4761 20V19.244L20.1861 15.674C20.8301 15.0393 21.2735 14.5306 21.5161 14.148C21.7588 13.756 21.8801 13.3406 21.8801 12.902C21.8801 12.342 21.6655 11.88 21.2361 11.516C20.8161 11.152 20.2841 10.97 19.6401 10.97C19.1641 10.97 18.7161 11.0633 18.2961 11.25C17.8855 11.4366 17.4281 11.7446 16.9241 12.174L16.3221 11.46C16.8541 10.9933 17.3955 10.648 17.9461 10.424C18.4968 10.1906 19.0661 10.074 19.6541 10.074C20.1208 10.074 20.5548 10.144 20.9561 10.284C21.3575 10.424 21.6981 10.6153 21.9781 10.858C22.2675 11.1006 22.4915 11.3946 22.6501 11.74C22.8088 12.076 22.8881 12.4446 22.8881 12.846C22.8881 13.1353 22.8555 13.406 22.7901 13.658C22.7341 13.91 22.6268 14.1666 22.4681 14.428C22.3188 14.68 22.1135 14.9553 21.8521 15.254C21.5908 15.5433 21.2595 15.8793 20.8581 16.262L17.8761 19.104H23.0701V20H16.4761Z" fill="#A2CD6A"/>
</svg>
