<svg width="31" height="31" viewBox="0 0 31 31" fill="none" xmlns="http://www.w3.org/2000/svg">
<circle cx="15.5" cy="15.5" r="15.5" fill="#00B934"/>
<circle cx="15.5" cy="15.5" r="12.5" fill="white"/>
<path d="M22.9062 13.8438L17.6562 8.59375C17.625 8.53125 17.5625 8.5 17.5 8.5C17.4375 8.5 17.375 8.53125 17.3125 8.59375L16.625 9.28125C16.5312 9.375 16.5312 9.53125 16.625 9.625L16.9688 9.96875L8.9375 18.0312C7.6875 19.2812 7.6875 21.3125 8.9375 22.5625C10.1875 23.8125 12.2188 23.8125 13.4688 22.5625L21.5312 14.5312L21.875 14.875C21.9062 14.9375 21.9688 14.9375 22.0312 14.9375C22.0938 14.9375 22.1562 14.9375 22.2188 14.875L22.9062 14.1875C23 14.0938 23 13.9375 22.9062 13.8438ZM12.4062 21.5C11.75 22.1875 10.6562 22.1875 10 21.5C9.3125 20.8438 9.3125 19.75 10 19.0938L11.5625 17.5H16.4062L12.4062 21.5ZM17.9062 16H13.0625L18.0312 11.0625L20.4375 13.4688L17.9062 16Z" fill="#00B934"/>
</svg>
