<svg width="47" height="62" viewBox="0 0 47 62" fill="none" xmlns="http://www.w3.org/2000/svg">
<g filter="url(#filter0_d)">
<path fill-rule="evenodd" clip-rule="evenodd" d="M38.0863 23.7556C38.6777 22.1145 39 20.3449 39 18.5C39 9.93959 32.0604 3 23.5 3C14.9396 3 8 9.93959 8 18.5C8 20.3449 8.32232 22.1145 8.91371 23.7556C11.552 32.3747 19.2632 43.3065 23.5 48.5C27.7368 43.3065 35.448 32.3747 38.0863 23.7556Z" fill="#A2CD6A"/>
</g>
<circle cx="23.5" cy="18.5" r="12.5" fill="white"/>
<path d="M16.5321 23V13.2H23.5461V14.152H17.6101V17.652H21.5021V18.59H17.6101V23H16.5321ZM24.476 23V22.244L28.186 18.674C28.83 18.0393 29.2733 17.5307 29.516 17.148C29.7587 16.756 29.88 16.3407 29.88 15.902C29.88 15.342 29.6653 14.88 29.236 14.516C28.816 14.152 28.284 13.97 27.64 13.97C27.164 13.97 26.716 14.0633 26.296 14.25C25.8853 14.4367 25.428 14.7447 24.924 15.174L24.322 14.46C24.854 13.9933 25.3953 13.648 25.946 13.424C26.4967 13.1907 27.066 13.074 27.654 13.074C28.1207 13.074 28.5547 13.144 28.956 13.284C29.3573 13.424 29.698 13.6153 29.978 13.858C30.2673 14.1007 30.4913 14.3947 30.65 14.74C30.8087 15.076 30.888 15.4447 30.888 15.846C30.888 16.1353 30.8553 16.406 30.79 16.658C30.734 16.91 30.6267 17.1667 30.468 17.428C30.3187 17.68 30.1133 17.9553 29.852 18.254C29.5907 18.5433 29.2593 18.8793 28.858 19.262L25.876 22.104H31.07V23H24.476Z" fill="#A2CD6A"/>
<defs>
<filter id="filter0_d" x="0" y="0" width="47" height="61.5" filterUnits="userSpaceOnUse" color-interpolation-filters="sRGB">
<feFlood flood-opacity="0" result="BackgroundImageFix"/>
<feColorMatrix in="SourceAlpha" type="matrix" values="0 0 0 0 0 0 0 0 0 0 0 0 0 0 0 0 0 0 127 0"/>
<feOffset dy="5"/>
<feGaussianBlur stdDeviation="4"/>
<feColorMatrix type="matrix" values="0 0 0 0 0.0823529 0 0 0 0 0.219686 0 0 0 0 0.486275 0 0 0 0.44 0"/>
<feBlend mode="normal" in2="BackgroundImageFix" result="effect1_dropShadow"/>
<feBlend mode="normal" in="SourceGraphic" in2="effect1_dropShadow" result="shape"/>
</filter>
</defs>
</svg>
