<svg width="219" height="172" viewBox="0 0 219 172" fill="none" xmlns="http://www.w3.org/2000/svg">
<g clip-path="url(#clip0)">
<g filter="url(#filter0_d)">
<path fill-rule="evenodd" clip-rule="evenodd" d="M0 172C120.95 172 219 73.9503 219 -47C219 -167.95 120.95 -266 0 -266C-120.95 -266 -219 -167.95 -219 -47C-219 73.9503 -120.95 172 0 172ZM0 79C69.5879 79 126 22.5879 126 -47C126 -116.588 69.5879 -173 0 -173C-69.5879 -173 -126 -116.588 -126 -47C-126 22.5879 -69.5879 79 0 79Z" fill="#A2CD6A"/>
</g>
</g>
<defs>
<filter id="filter0_d" x="-251" y="-294" width="498" height="498" filterUnits="userSpaceOnUse" color-interpolation-filters="sRGB">
<feFlood flood-opacity="0" result="BackgroundImageFix"/>
<feColorMatrix in="SourceAlpha" type="matrix" values="0 0 0 0 0 0 0 0 0 0 0 0 0 0 0 0 0 0 127 0"/>
<feOffset dx="-2" dy="2"/>
<feGaussianBlur stdDeviation="15"/>
<feColorMatrix type="matrix" values="0 0 0 0 0.554542 0 0 0 0 0.716667 0 0 0 0 0.343403 0 0 0 0.32 0"/>
<feBlend mode="normal" in2="BackgroundImageFix" result="effect1_dropShadow"/>
<feBlend mode="normal" in="SourceGraphic" in2="effect1_dropShadow" result="shape"/>
</filter>
<clipPath id="clip0">
<rect width="219" height="172" fill="white"/>
</clipPath>
</defs>
</svg>
