<svg width="138" height="138" viewBox="0 0 138 138" fill="none" xmlns="http://www.w3.org/2000/svg">
<g filter="url(#filter0_d)">
<ellipse cx="71" cy="67.0827" rx="39" ry="38.5331" fill="white"/>
</g>
<path fill-rule="evenodd" clip-rule="evenodd" d="M96.3219 96.2346L94.8037 67.0192C94.7996 66.9412 94.8618 66.8757 94.9399 66.8757C96.8234 66.8757 98.3503 65.3484 98.3503 63.4645V52.3591V45.3806C98.3503 44.3989 97.5547 43.6031 96.5732 43.6031C95.5918 43.6031 94.7962 44.3989 94.7962 45.3806V52.1221C94.7962 52.253 94.6902 52.3591 94.5593 52.3591C94.4284 52.3591 94.3224 52.253 94.3224 52.1221V40.7721C94.3224 39.7904 93.5268 38.9946 92.5453 38.9946C91.5639 38.9946 90.7683 39.7904 90.7683 40.7721V52.0036C90.7683 52.2 90.6092 52.3591 90.4129 52.3591C90.2166 52.3591 90.0575 52.2 90.0575 52.0036V39.1592C90.0575 38.1775 89.2619 37.3817 88.2805 37.3817C87.2991 37.3817 86.5035 38.1775 86.5035 39.1592V52.0036C86.5035 52.2 86.3444 52.3591 86.1481 52.3591C85.9518 52.3591 85.7927 52.2 85.7927 52.0036V40.7721C85.7927 39.7904 84.9971 38.9946 84.0157 38.9946C83.0342 38.9946 82.2387 39.7904 82.2387 40.7721V52.3591V54.7386C82.2387 55.3585 81.4705 55.6473 81.0622 55.1808L77.8561 51.5171C77.3612 50.9516 76.5151 50.8614 75.9121 51.3098C75.3546 51.7244 75.1723 52.4778 75.4784 53.1016L81.0859 64.5269C81.7915 65.9647 83.2533 66.8757 84.8545 66.8757C84.977 66.8757 85.0735 66.9802 85.0638 67.1024L82.0631 104.641C84.5752 103.875 87.0415 102.812 89.4152 101.442C91.9805 99.9601 94.2881 98.2047 96.3219 96.2346Z" fill="url(#paint0_linear)"/>
<path fill-rule="evenodd" clip-rule="evenodd" d="M67.7964 106L64.0765 56.6553C64.0647 56.4989 64.1879 56.3655 64.3442 56.3655C66.4139 56.3655 68.2993 55.1718 69.1908 53.2972L76.5017 37.9241C76.884 37.1201 76.653 36.1572 75.9479 35.6161C75.1547 35.0072 74.0254 35.1283 73.3782 35.8916L69.2458 40.7651C68.7276 41.3761 67.7317 41.0084 67.7317 40.2059V36.9903V21.4594C67.7317 20.1855 66.7028 19.1528 65.4335 19.1528C64.1643 19.1528 63.1354 20.1855 63.1354 21.4594V36.529C63.1354 36.7837 62.9296 36.9903 62.6757 36.9903C62.4219 36.9903 62.2161 36.7837 62.2161 36.529V19.3066C62.2161 18.0327 61.1872 17 59.9179 17C58.6487 17 57.6198 18.0327 57.6198 19.3066V36.529C57.6198 36.7837 57.414 36.9903 57.1601 36.9903C56.9063 36.9903 56.7005 36.7837 56.7005 36.529V21.4594C56.7005 20.1855 55.6716 19.1528 54.4023 19.1528C53.1331 19.1528 52.1042 20.1855 52.1042 21.4594V36.6827C52.1042 36.8526 51.967 36.9903 51.7978 36.9903C51.6285 36.9903 51.4913 36.8526 51.4913 36.6827V27.6102C51.4913 26.3363 50.4624 25.3037 49.1932 25.3037C47.9239 25.3037 46.895 26.3363 46.895 27.6102V36.9903V51.9421C46.895 54.3851 48.8682 56.3655 51.3023 56.3655C51.4045 56.3655 51.4853 56.4524 51.4782 56.5548L48.5167 99.1012C54.1032 103.316 60.8521 105.7 67.7964 106Z" fill="url(#paint1_linear)"/>
<defs>
<filter id="filter0_d" x="0" y="0.549622" width="138" height="137.066" filterUnits="userSpaceOnUse" color-interpolation-filters="sRGB">
<feFlood flood-opacity="0" result="BackgroundImageFix"/>
<feColorMatrix in="SourceAlpha" type="matrix" values="0 0 0 0 0 0 0 0 0 0 0 0 0 0 0 0 0 0 127 0"/>
<feOffset dx="-2" dy="2"/>
<feGaussianBlur stdDeviation="15"/>
<feColorMatrix type="matrix" values="0 0 0 0 0.376013 0 0 0 0 0.265938 0 0 0 0 0.4625 0 0 0 0.1 0"/>
<feBlend mode="normal" in2="BackgroundImageFix" result="effect1_dropShadow"/>
<feBlend mode="normal" in="SourceGraphic" in2="effect1_dropShadow" result="shape"/>
</filter>
<linearGradient id="paint0_linear" x1="86.8405" y1="36.069" x2="86.8405" y2="104.658" gradientUnits="userSpaceOnUse">
<stop offset="0.0208333" stop-color="#FFB183"/>
<stop offset="1" stop-color="#EB7834"/>
</linearGradient>
<linearGradient id="paint1_linear" x1="61.79" y1="17" x2="61.79" y2="106" gradientUnits="userSpaceOnUse">
<stop stop-color="#A9E25D"/>
<stop offset="1" stop-color="#A2CD6A"/>
</linearGradient>
</defs>
</svg>
