<svg width="47" height="62" viewBox="0 0 47 62" fill="none" xmlns="http://www.w3.org/2000/svg">
<g filter="url(#filter0_d)">
<path fill-rule="evenodd" clip-rule="evenodd" d="M38.0863 23.7556C38.6777 22.1145 39 20.3449 39 18.5C39 9.93959 32.0604 3 23.5 3C14.9396 3 8 9.93959 8 18.5C8 20.3449 8.32232 22.1145 8.91371 23.7556C11.552 32.3747 19.2632 43.3065 23.5 48.5C27.7368 43.3065 35.448 32.3747 38.0863 23.7556Z" fill="#02DCB5"/>
</g>
<circle cx="23.5" cy="18.5" r="12.5" fill="white"/>
<path d="M25 22H22C21.7188 22 21.5 22.25 21.5 22.5V26.5C21.5 26.7812 21.7188 27 22 27H25C25.25 27 25.5 26.7812 25.5 26.5V22.5C25.5 22.25 25.25 22 25 22ZM23.5 14.75C21.9688 14.75 20.75 16 20.75 17.5C20.75 19.0312 21.9688 20.25 23.5 20.25C25 20.25 26.25 19.0312 26.25 17.5C26.25 16 25 14.75 23.5 14.75ZM25 18.25C25 18.4062 24.875 18.5 24.75 18.5H23.25C23.0938 18.5 23 18.4062 23 18.25V16.25C23 16.125 23.0938 16 23.25 16H23.75C23.875 16 24 16.125 24 16.25V17.5H24.75C24.875 17.5 25 17.625 25 17.75V18.25ZM32.5 17H29.5V15.3438C29.5 15 29.3125 14.6875 29.0312 14.5312L24.0312 11.1875C23.9062 11.0938 23.6562 11 23.5 11H23.4688C23.3125 11 23.0625 11.0938 22.9375 11.1875L17.9375 14.5312C17.6875 14.6875 17.5 15.0625 17.5 15.3438V17H14.5C13.9375 17 13.5 17.4688 13.5 18V26.5C13.5 26.7812 13.7188 27 14 27H14.5C14.75 27 15 26.7812 15 26.5V18.5H17.5V27H19V15.625L23.5 12.625L28 15.625V27H29.5V18.5H32V26.5C32 26.7812 32.2188 27 32.5 27H33C33.25 27 33.5 26.7812 33.5 26.5V18C33.5 17.4688 33.0312 17 32.5 17Z" fill="#02DCB5"/>
<defs>
<filter id="filter0_d" x="0" y="0" width="47" height="61.5" filterUnits="userSpaceOnUse" color-interpolation-filters="sRGB">
<feFlood flood-opacity="0" result="BackgroundImageFix"/>
<feColorMatrix in="SourceAlpha" type="matrix" values="0 0 0 0 0 0 0 0 0 0 0 0 0 0 0 0 0 0 127 0"/>
<feOffset dy="5"/>
<feGaussianBlur stdDeviation="4"/>
<feColorMatrix type="matrix" values="0 0 0 0 0.0823529 0 0 0 0 0.219686 0 0 0 0 0.486275 0 0 0 0.44 0"/>
<feBlend mode="normal" in2="BackgroundImageFix" result="effect1_dropShadow"/>
<feBlend mode="normal" in="SourceGraphic" in2="effect1_dropShadow" result="shape"/>
</filter>
</defs>
</svg>
