<svg width="31" height="31" viewBox="0 0 31 31" fill="none" xmlns="http://www.w3.org/2000/svg">
<g id="HS-Circle">
<circle id="Ellipse 87" cx="15.5" cy="15.5" r="15.5" fill="#02DCB5"/>
<circle id="Ellipse 88" cx="15.5" cy="15.5" r="12.5" fill="white"/>
<path id="&#239;&#149;&#137;" d="M16.8125 18.375H14.1875C13.9414 18.375 13.75 18.5938 13.75 18.8125V22.3125C13.75 22.5586 13.9414 22.75 14.1875 22.75H16.8125C17.0312 22.75 17.25 22.5586 17.25 22.3125V18.8125C17.25 18.5938 17.0312 18.375 16.8125 18.375ZM15.5 12.0312C14.1602 12.0312 13.0938 13.125 13.0938 14.4375C13.0938 15.7773 14.1602 16.8438 15.5 16.8438C16.8125 16.8438 17.9062 15.7773 17.9062 14.4375C17.9062 13.125 16.8125 12.0312 15.5 12.0312ZM16.8125 15.0938C16.8125 15.2305 16.7031 15.3125 16.5938 15.3125H15.2812C15.1445 15.3125 15.0625 15.2305 15.0625 15.0938V13.3438C15.0625 13.2344 15.1445 13.125 15.2812 13.125H15.7188C15.8281 13.125 15.9375 13.2344 15.9375 13.3438V14.4375H16.5938C16.7031 14.4375 16.8125 14.5469 16.8125 14.6562V15.0938ZM23.375 14H20.75V12.5508C20.75 12.25 20.5859 11.9766 20.3398 11.8398L15.9648 8.91406C15.8555 8.83203 15.6367 8.75 15.5 8.75H15.4727C15.3359 8.75 15.1172 8.83203 15.0078 8.91406L10.6328 11.8398C10.4141 11.9766 10.25 12.3047 10.25 12.5508V14H7.625C7.13281 14 6.75 14.4102 6.75 14.875V22.3125C6.75 22.5586 6.94141 22.75 7.1875 22.75H7.625C7.84375 22.75 8.0625 22.5586 8.0625 22.3125V15.3125H10.25V22.75H11.5625V12.7969L15.5 10.1719L19.4375 12.7969V22.75H20.75V15.3125H22.9375V22.3125C22.9375 22.5586 23.1289 22.75 23.375 22.75H23.8125C24.0312 22.75 24.25 22.5586 24.25 22.3125V14.875C24.25 14.4102 23.8398 14 23.375 14Z" fill="#02DCB5"/>
</g>
</svg>
