<svg width="47" height="62" viewBox="0 0 47 62" fill="none" xmlns="http://www.w3.org/2000/svg">
<g filter="url(#filter0_d)">
<path fill-rule="evenodd" clip-rule="evenodd" d="M38.0863 23.7556C38.6777 22.1145 39 20.3449 39 18.5C39 9.93959 32.0604 3 23.5 3C14.9396 3 8 9.93959 8 18.5C8 20.3449 8.32232 22.1145 8.91371 23.7556C11.552 32.3747 19.2632 43.3065 23.5 48.5C27.7368 43.3065 35.448 32.3747 38.0863 23.7556Z" fill="#EB7834"/>
</g>
<circle cx="23.5" cy="18.5" r="12.5" fill="white"/>
<path d="M17.4413 23V13.2H18.5193V23H17.4413ZM30.0475 18.31C30.0475 18.9913 29.9262 19.6307 29.6835 20.228C29.4408 20.816 29.1048 21.3247 28.6755 21.754C28.2462 22.1833 27.7422 22.524 27.1635 22.776C26.5848 23.028 25.9595 23.154 25.2875 23.154C24.5875 23.154 23.9248 23.0233 23.2995 22.762C22.6835 22.4913 22.1468 22.132 21.6895 21.684C21.2415 21.2267 20.8822 20.69 20.6115 20.074C20.3502 19.458 20.2195 18.8 20.2195 18.1C20.2195 17.4 20.3502 16.742 20.6115 16.126C20.8728 15.51 21.2275 14.978 21.6755 14.53C22.1328 14.0727 22.6695 13.7133 23.2855 13.452C23.9108 13.1813 24.5735 13.046 25.2735 13.046C26.0295 13.046 26.7435 13.1907 27.4155 13.48C28.0875 13.76 28.6615 14.152 29.1375 14.656L28.4095 15.398C28.0362 14.9687 27.5695 14.6373 27.0095 14.404C26.4495 14.1613 25.8708 14.04 25.2735 14.04C24.7135 14.04 24.1908 14.1473 23.7055 14.362C23.2202 14.5673 22.8002 14.852 22.4455 15.216C22.1002 15.5707 21.8248 16 21.6195 16.504C21.4142 16.9987 21.3115 17.5307 21.3115 18.1C21.3115 18.6693 21.4142 19.206 21.6195 19.71C21.8248 20.2047 22.1002 20.634 22.4455 20.998C22.8002 21.3527 23.2202 21.6373 23.7055 21.852C24.1908 22.0573 24.7135 22.16 25.2735 22.16C25.7682 22.16 26.2302 22.076 26.6595 21.908C27.0982 21.74 27.4762 21.5113 27.7935 21.222C28.1202 20.9233 28.3862 20.5687 28.5915 20.158C28.7968 19.7473 28.9182 19.304 28.9555 18.828H25.4415V17.876H30.0475V18.31Z" fill="#EB7834"/>
<defs>
<filter id="filter0_d" x="0" y="0" width="47" height="61.5" filterUnits="userSpaceOnUse" color-interpolation-filters="sRGB">
<feFlood flood-opacity="0" result="BackgroundImageFix"/>
<feColorMatrix in="SourceAlpha" type="matrix" values="0 0 0 0 0 0 0 0 0 0 0 0 0 0 0 0 0 0 127 0"/>
<feOffset dy="5"/>
<feGaussianBlur stdDeviation="4"/>
<feColorMatrix type="matrix" values="0 0 0 0 0.0823529 0 0 0 0 0.219686 0 0 0 0 0.486275 0 0 0 0.44 0"/>
<feBlend mode="normal" in2="BackgroundImageFix" result="effect1_dropShadow"/>
<feBlend mode="normal" in="SourceGraphic" in2="effect1_dropShadow" result="shape"/>
</filter>
</defs>
</svg>
