<svg width="31" height="31" viewBox="0 0 31 31" fill="none" xmlns="http://www.w3.org/2000/svg">
<circle cx="15.5" cy="15.5" r="15.5" fill="#EB7834"/>
<circle cx="15.5" cy="15.5" r="12.5" fill="white"/>
<path d="M9.44141 20V10.2H10.5194V20H9.44141Z" fill="#EB7834"/>
<path d="M22.0476 15.31C22.0476 15.9914 21.9263 16.6307 21.6836 17.228C21.441 17.816 21.105 18.3247 20.6756 18.754C20.2463 19.1834 19.7423 19.524 19.1636 19.776C18.585 20.028 17.9596 20.154 17.2876 20.154C16.5876 20.154 15.925 20.0234 15.2996 19.762C14.6836 19.4914 14.147 19.132 13.6896 18.684C13.2416 18.2267 12.8823 17.69 12.6116 17.074C12.3503 16.458 12.2196 15.8 12.2196 15.1C12.2196 14.4 12.3503 13.742 12.6116 13.126C12.873 12.51 13.2276 11.978 13.6756 11.53C14.133 11.0727 14.6696 10.7134 15.2856 10.452C15.911 10.1814 16.5736 10.046 17.2736 10.046C18.0296 10.046 18.7436 10.1907 19.4156 10.48C20.0876 10.76 20.6616 11.152 21.1376 11.656L20.4096 12.398C20.0363 11.9687 19.5696 11.6374 19.0096 11.404C18.4496 11.1614 17.871 11.04 17.2736 11.04C16.7136 11.04 16.191 11.1474 15.7056 11.362C15.2203 11.5674 14.8003 11.852 14.4456 12.216C14.1003 12.5707 13.825 13 13.6196 13.504C13.4143 13.9987 13.3116 14.5307 13.3116 15.1C13.3116 15.6694 13.4143 16.206 13.6196 16.71C13.825 17.2047 14.1003 17.634 14.4456 17.998C14.8003 18.3527 15.2203 18.6374 15.7056 18.852C16.191 19.0574 16.7136 19.16 17.2736 19.16C17.7683 19.16 18.2303 19.076 18.6596 18.908C19.0983 18.74 19.4763 18.5114 19.7936 18.222C20.1203 17.9234 20.3863 17.5687 20.5916 17.158C20.797 16.7474 20.9183 16.304 20.9556 15.828H17.4416V14.876H22.0476V15.31Z" fill="#EB7834"/>
</svg>
