<?xml version="1.0" encoding="utf-8"?>
<!-- Generator: Adobe Illustrator 25.2.3, SVG Export Plug-In . SVG Version: 6.00 Build 0)  -->
<svg version="1.1" id="logo" xmlns="http://www.w3.org/2000/svg" xmlns:xlink="http://www.w3.org/1999/xlink" x="0px" y="0px"
	 viewBox="0 0 820 100" style="enable-background:new 0 0 820 100;" xml:space="preserve">
<style type="text/css">
	.st0{fill:#FDD432;}
	.st1{fill:#EA7833;}
	.st2{fill:#54C6F2;}
	.st3{fill:#A3CC69;}
	.st4{fill:#DA1C5C;}
	.st5{fill:#1B75BC;}
</style>
<g>
	<g>
		<circle class="st0" cx="88.1" cy="47.2" r="2"/>
		<circle class="st0" cx="84.7" cy="65.4" r="2.4"/>
		<circle class="st0" cx="87.2" cy="42.4" r="1.5"/>
		<circle class="st0" cx="89.5" cy="75.9" r="1.5"/>
		<circle class="st0" cx="94.3" cy="64.8" r="1.3"/>
		<circle class="st0" cx="94.8" cy="30.6" r="1.3"/>
		<circle class="st0" cx="104.2" cy="57.4" r="0.7"/>
		<circle class="st0" cx="91.7" cy="53.4" r="0.7"/>
		<circle class="st0" cx="99.4" cy="71.2" r="1"/>
		<circle class="st0" cx="87.2" cy="52.3" r="1"/>
		<circle class="st0" cx="90" cy="64.8" r="1.7"/>
		<circle class="st0" cx="94" cy="37.4" r="1.2"/>
		<circle class="st0" cx="83.5" cy="34" r="1.2"/>
		<circle class="st0" cx="92.5" cy="68.4" r="1.2"/>
		<circle class="st0" cx="85.6" cy="38.1" r="1.7"/>
		<circle class="st0" cx="89.3" cy="35" r="1.9"/>
		<circle class="st0" cx="88.6" cy="58.4" r="3.2"/>
		<circle class="st0" cx="88.9" cy="39.5" r="0.9"/>
		<circle class="st0" cx="88.5" cy="69.2" r="1.8"/>
		<circle class="st0" cx="92.5" cy="71.7" r="0.9"/>
		<circle class="st0" cx="98.7" cy="49.9" r="0.9"/>
		<circle class="st0" cx="92.9" cy="61.1" r="0.9"/>
	</g>
	<g>
		<circle class="st1" cx="25.1" cy="35.2" r="2"/>
		<g>
			<circle class="st1" cx="41.7" cy="22.9" r="2.4"/>
			<circle class="st1" cx="35.3" cy="21.7" r="1.8"/>
			<circle class="st1" cx="34.5" cy="29.5" r="1.3"/>
			<circle class="st1" cx="11.1" cy="31.6" r="1"/>
			<circle class="st1" cx="25.5" cy="3.7" r="0.7"/>
			<circle class="st1" cx="26.8" cy="30.6" r="1"/>
			<circle class="st1" cx="40.2" cy="12.8" r="1.7"/>
			<circle class="st1" cx="21.1" cy="33.6" r="1.1"/>
			<circle class="st1" cx="37.7" cy="26.5" r="1.7"/>
			<circle class="st1" cx="34.8" cy="16.8" r="1.2"/>
			<circle class="st1" cx="31" cy="33.8" r="2.7"/>
			<circle class="st1" cx="39.2" cy="17.8" r="1.9"/>
			<circle class="st1" cx="19.4" cy="19.4" r="1.6"/>
			<circle class="st1" cx="33.2" cy="25.4" r="0.9"/>
		</g>
	</g>
	<g>
		<circle class="st2" cx="74.3" cy="82.8" r="2"/>
		<circle class="st2" cx="44.9" cy="86.5" r="2"/>
		<circle class="st2" cx="62.6" cy="80.2" r="2"/>
		<circle class="st2" cx="41.1" cy="82" r="1.5"/>
		<circle class="st2" cx="49.4" cy="80.7" r="3.7"/>
		<circle class="st2" cx="70.2" cy="84.3" r="1.3"/>
		<circle class="st2" cx="40.3" cy="85.9" r="1.3"/>
		<circle class="st2" cx="63.8" cy="83.8" r="0.7"/>
		<circle class="st2" cx="77.1" cy="94.5" r="0.7"/>
		<circle class="st2" cx="74.8" cy="89.8" r="1.1"/>
		<circle class="st2" cx="53.3" cy="91.8" r="1.2"/>
		<circle class="st2" cx="59.8" cy="84.8" r="1.9"/>
		<circle class="st2" cx="69.1" cy="79" r="2.7"/>
		<circle class="st2" cx="77.1" cy="76.2" r="3.7"/>
		<circle class="st2" cx="56.5" cy="80.6" r="1.6"/>
		<circle class="st2" cx="44.8" cy="95.2" r="1.6"/>
		<circle class="st2" cx="50.4" cy="88.2" r="2.4"/>
		<circle class="st2" cx="54.9" cy="84.6" r="1.5"/>
		<circle class="st2" cx="55.2" cy="88.6" r="0.9"/>
		<circle class="st2" cx="77.3" cy="90.6" r="0.9"/>
	</g>
	<g>
		<circle class="st3" cx="41.7" cy="76.3" r="2.4"/>
		<circle class="st3" cx="32.1" cy="65.7" r="2"/>
		<circle class="st3" cx="28.2" cy="54.4" r="2"/>
		<circle class="st3" cx="22.5" cy="51.9" r="2.4"/>
		<circle class="st3" cx="27" cy="64.2" r="1.5"/>
		<circle class="st3" cx="27.6" cy="49.3" r="1.8"/>
		<circle class="st3" cx="30.2" cy="69.9" r="1.3"/>
		<circle class="st3" cx="24.7" cy="93.9" r="0.7"/>
		<circle class="st3" cx="20.7" cy="56.8" r="0.7"/>
		<circle class="st3" cx="37.2" cy="76.3" r="0.7"/>
		<circle class="st3" cx="30.7" cy="73.3" r="1"/>
		<circle class="st3" cx="31.9" cy="79" r="1"/>
		<circle class="st3" cx="16.8" cy="55.6" r="1.7"/>
		<circle class="st3" cx="24.2" cy="56.6" r="1.2"/>
		<circle class="st3" cx="21.8" cy="76.4" r="1.1"/>
		<circle class="st3" cx="20.7" cy="43.9" r="1.9"/>
		<circle class="st3" cx="35.5" cy="71.4" r="3.2"/>
		<circle class="st3" cx="27.1" cy="42" r="3.7"/>
		<circle class="st3" cx="38" cy="79.4" r="0.9"/>
		<circle class="st3" cx="23.7" cy="47.1" r="0.9"/>
	</g>
	<g>
		<circle class="st4" cx="82.9" cy="16.6" r="2"/>
		<circle class="st4" cx="59.2" cy="20.1" r="2"/>
		<circle class="st4" cx="56.8" cy="14.4" r="1.5"/>
		<circle class="st4" cx="80.5" cy="21.7" r="1.8"/>
		<circle class="st4" cx="73.6" cy="22.8" r="3.7"/>
		<circle class="st4" cx="73.7" cy="16.6" r="1.3"/>
		<circle class="st4" cx="60.4" cy="15.7" r="1.3"/>
		<circle class="st4" cx="64.6" cy="10.1" r="0.7"/>
		<circle class="st4" cx="59.8" cy="11.9" r="1"/>
		<circle class="st4" cx="63.8" cy="15.8" r="1"/>
		<circle class="st4" cx="81.1" cy="28.9" r="3.2"/>
		<circle class="st4" cx="48.6" cy="10.1" r="1.2"/>
		<circle class="st4" cx="53.9" cy="20.4" r="1.7"/>
		<circle class="st4" cx="65.7" cy="20.6" r="2.7"/>
		<circle class="st4" cx="71.1" cy="11.3" r="1.6"/>
		<circle class="st4" cx="84.5" cy="24.1" r="0.9"/>
		<circle class="st4" cx="54" cy="5.5" r="0.9"/>
		<circle class="st4" cx="88.7" cy="10.8" r="1.8"/>
		<circle class="st4" cx="77.8" cy="17.1" r="1.7"/>
		<circle class="st4" cx="84.8" cy="8.7" r="0.9"/>
	</g>
	<circle class="st5" cx="58" cy="50.1" r="24.1"/>
</g>
<path class="st5" d="M103.2,36.9h4.8l13,22.7l3.9,7.5h0.2c-0.2-3.7-0.6-7.7-0.6-11.5V36.9h4.4v36.2h-4.8L111,50.3l-3.9-7.5H107
	c0.2,3.7,0.6,7.5,0.6,11.3v19h-4.4V36.9z"/>
<path class="st5" d="M134.9,68.4l2.8-3.2c2.6,2.7,6.2,4.5,10,4.5c4.8,0,7.6-2.4,7.6-5.9c0-3.7-2.6-4.9-6-6.4l-5.2-2.3
	c-3.4-1.4-7.3-4-7.3-9.3c0-5.5,4.8-9.6,11.4-9.6c4.3,0,8.1,1.9,10.7,4.5l-2.4,3c-2.2-2.1-4.9-3.4-8.2-3.4c-4.1,0-6.8,2-6.8,5.3
	c0,3.5,3.2,4.8,6,6l5.2,2.2c4.2,1.8,7.5,4.3,7.5,9.7c0,5.7-4.7,10.3-12.3,10.3C142.4,73.7,138,71.7,134.9,68.4z"/>
<path class="st5" d="M165.6,36.9h20.9v3.9h-16.3V53H184v3.9h-13.8v16.2h-4.6L165.6,36.9L165.6,36.9z"/>
<path class="st5" d="M201.1,36.9h4.6v36.2h-4.6V36.9z"/>
<path class="st5" d="M214.2,36.9h4.8l13.1,22.8l3.9,7.5h0.2c-0.2-3.7-0.6-7.7-0.6-11.5V36.9h4.4v36.2h-4.8l-13.1-22.8l-3.9-7.5H218
	c0.2,3.7,0.6,7.5,0.6,11.3v19h-4.4L214.2,36.9L214.2,36.9z"/>
<path class="st5" d="M246.4,55c0-11.7,6.9-18.8,16.1-18.8c4.4,0,7.8,2.1,10,4.5l-2.5,3c-1.9-2-4.3-3.4-7.4-3.4
	c-6.8,0-11.4,5.6-11.4,14.6c0,9.1,4.3,14.8,11.2,14.8c3.5,0,6.1-1.5,8.4-4.1l2.5,2.9c-2.9,3.3-6.4,5.2-11.1,5.2
	C253.2,73.7,246.4,66.8,246.4,55z"/>
<path class="st5" d="M278.7,36.9h4.6v32.3h15.8v3.9h-20.4V36.9z"/>
<path class="st5" d="M303.9,58.1V36.9h4.6v21.4c0,8.7,3.7,11.4,8.4,11.4c4.8,0,8.6-2.7,8.6-11.4V36.9h4.4v21.3
	c0,11.6-5.6,15.6-13,15.6S303.9,69.7,303.9,58.1z"/>
<path class="st5" d="M338.3,36.9h9.1c11.1,0,17.1,6.5,17.1,18s-6,18.2-16.9,18.2h-9.3L338.3,36.9L338.3,36.9z M347,69.3
	c8.5,0,12.7-5.3,12.7-14.5s-4.2-14.2-12.7-14.2h-4.1v28.7H347z"/>
<path class="st5" d="M370.9,36.9h20.9v3.9h-16.3v11.3h13.7V56h-13.7v13.2h16.8v3.9h-21.4V36.9z"/>
<path class="st5" d="M396,68.4l2.8-3.2c2.6,2.7,6.2,4.5,10,4.5c4.8,0,7.6-2.4,7.6-5.9c0-3.7-2.6-4.9-6-6.4l-5.2-2.3
	c-3.4-1.4-7.3-4-7.3-9.3c0-5.5,4.8-9.6,11.4-9.6c4.3,0,8.1,1.9,10.7,4.5l-2.4,3c-2.2-2.1-4.9-3.4-8.2-3.4c-4.1,0-6.8,2-6.8,5.3
	c0,3.5,3.2,4.8,6,6l5.2,2.2c4.2,1.8,7.5,4.3,7.5,9.7c0,5.7-4.7,10.3-12.3,10.3C403.6,73.7,399.1,71.7,396,68.4z"/>
<g>
	<path class="st5" d="M436.1,68.3l1.8-2.1c2.6,3,6.3,4.8,10.5,4.8c5.4,0,8.7-2.8,8.7-6.9c0-4.4-2.8-5.8-6.4-7.3l-5.4-2.4
		c-3.2-1.4-7.3-3.7-7.3-9c0-5.4,4.6-9.1,10.7-9.1c4.4,0,7.9,1.9,10.2,4.4l-1.7,1.9c-2.1-2.2-5-3.6-8.5-3.6c-4.6,0-7.7,2.4-7.7,6.1
		c0,4.1,3.5,5.7,6.1,6.8l5.4,2.4c4.1,1.8,7.6,4.1,7.6,9.6c0,5.6-4.6,9.8-11.7,9.8C443.2,73.7,439,71.5,436.1,68.3z"/>
	<path class="st5" d="M466.3,33.7h2.9V45l0,5.8c2.7-2.7,5.4-4.8,9-4.8c5.5,0,8,3.4,8,10.2v16.9h-2.9V56.6c0-5.5-1.7-8-5.8-8
		c-3.1,0-5.3,1.6-8.3,4.8v19.8h-2.9V33.7z"/>
	<path class="st5" d="M492.7,66.4c0-5.8,5.2-8.6,16.9-10c0.1-3.9-1-8-6-8c-3.5,0-6.5,1.6-8.3,3l-1.3-2.1c2-1.4,5.7-3.5,10-3.5
		c6.3,0,8.5,4.5,8.5,10.4v16.8H510l-0.3-3.4h-0.1c-2.7,2.2-5.8,4-9.2,4C496.1,73.7,492.7,71.3,492.7,66.4z M509.5,67.2v-8.6
		c-10.4,1.2-14,3.6-14,7.7c0,3.6,2.5,5,5.4,5S506.4,69.9,509.5,67.2z"/>
	<path class="st5" d="M520.6,46.7h2.4l0.3,4.9h0.1c1.8-3.3,4.4-5.6,7.5-5.6c1,0,1.8,0.1,2.7,0.6l-0.6,2.6c-0.9-0.3-1.4-0.4-2.4-0.4
		c-2.3,0-5.2,1.7-7.1,6.6v17.7h-2.9V46.7z"/>
	<path class="st5" d="M534.7,59.9c0-8.6,5.7-13.9,11.6-13.9c6.4,0,10.2,4.6,10.2,12.3c0,0.7,0,1.4-0.1,2.1h-18.7
		c0.1,6.4,4,11,9.7,11c2.8,0,5.1-0.9,7-2.3l1.1,2.1c-2.1,1.3-4.6,2.6-8.4,2.6C540.2,73.7,534.7,68.6,534.7,59.9z M553.9,58.1
		c0-6.4-2.9-9.6-7.5-9.6c-4.3,0-8.2,3.6-8.7,9.6H553.9z"/>
	<path class="st5" d="M560.4,59.9c0-8.5,5.5-13.9,11.7-13.9c3.2,0,5.3,1.2,7.9,3.2l-0.2-4.8V33.7h2.9v39.4h-2.4l-0.3-3.3h-0.1
		c-2.1,2.1-5.1,4-8.5,4C564.7,73.7,560.4,68.8,560.4,59.9z M579.8,67V51.8c-2.6-2.4-4.9-3.3-7.4-3.3c-5.1,0-8.9,4.9-8.9,11.4
		c0,6.8,3,11.3,8.4,11.3C574.7,71.2,577.2,69.8,579.8,67z"/>
	<path class="st5" d="M601.9,36.9h4l7.4,20.8c0.9,2.6,1.9,5.3,2.8,7.9h0.2c0.9-2.6,1.8-5.3,2.7-7.9l7.4-20.8h4v36.1h-2.8V50.2
		c0-3,0.2-6.9,0.3-10h-0.2l-2.8,8.1l-7.6,20.9H615l-7.6-20.9l-2.8-8.1h-0.2c0.1,3,0.3,7,0.3,10v22.9h-2.7V36.9z"/>
	<path class="st5" d="M636.5,59.9c0-8.6,5.7-13.9,11.6-13.9c6.4,0,10.2,4.6,10.2,12.3c0,0.7,0,1.4-0.1,2.1h-18.7
		c0.1,6.4,4,11,9.7,11c2.8,0,5.1-0.9,7-2.3l1.1,2.1c-2.1,1.3-4.6,2.6-8.4,2.6C642,73.7,636.5,68.6,636.5,59.9z M655.7,58.1
		c0-6.4-2.9-9.6-7.5-9.6c-4.3,0-8.2,3.6-8.7,9.6H655.7z"/>
	<path class="st5" d="M662.7,66.4c0-5.8,5.2-8.6,16.9-10c0.1-3.9-1-8-6-8c-3.5,0-6.5,1.6-8.3,3l-1.3-2.1c2-1.4,5.7-3.5,10-3.5
		c6.3,0,8.5,4.5,8.5,10.4v16.8H680l-0.3-3.4h-0.1c-2.7,2.2-5.8,4-9.2,4C666.1,73.7,662.7,71.3,662.7,66.4z M679.5,67.2v-8.6
		c-10.4,1.2-14,3.6-14,7.7c0,3.6,2.5,5,5.4,5S676.4,69.9,679.5,67.2z"/>
	<path class="st5" d="M687.4,70.1l1.5-2.1c2.3,1.9,4.7,3.3,8.3,3.3c4,0,6-2.3,6-5c0-3.1-3.3-4.6-6.4-5.7c-3.9-1.4-8.1-3-8.1-7.6
		c0-3.9,3.1-7.1,8.7-7.1c2.9,0,5.8,1.2,7.7,2.8l-1.5,2c-1.8-1.3-3.6-2.4-6.2-2.4c-4,0-5.8,2.2-5.8,4.6c0,2.9,2.9,4,5.9,5.2
		c4.1,1.5,8.5,3,8.5,8.1c0,4.1-3.2,7.5-9.1,7.5C693.2,73.7,689.8,72.1,687.4,70.1z"/>
	<path class="st5" d="M711.6,63.6V46.7h2.9v16.6c0,5.4,1.7,7.9,5.8,7.9c3.1,0,5.3-1.6,8.2-5.2V46.7h2.9v26.4h-2.4l-0.2-4.4h-0.1
		c-2.6,3-5.3,5-8.9,5C714.1,73.7,711.6,70.4,711.6,63.6z"/>
	<path class="st5" d="M740.3,46.7h2.4l0.3,4.9h0.1c1.8-3.3,4.4-5.6,7.5-5.6c1,0,1.8,0.1,2.7,0.6l-0.6,2.6c-0.9-0.3-1.4-0.4-2.4-0.4
		c-2.3,0-5.2,1.7-7.1,6.6v17.7h-2.9V46.7z"/>
	<path class="st5" d="M754.4,59.9c0-8.6,5.7-13.9,11.6-13.9c6.4,0,10.2,4.6,10.2,12.3c0,0.7,0,1.4-0.1,2.1h-18.7
		c0.1,6.4,4,11,9.7,11c2.8,0,5.1-0.9,7-2.3l1.1,2.1c-2.1,1.3-4.6,2.6-8.4,2.6C759.9,73.7,754.4,68.6,754.4,59.9z M773.6,58.1
		c0-6.4-2.9-9.6-7.5-9.6c-4.3,0-8.2,3.6-8.7,9.6H773.6z"/>
	<path class="st5" d="M779,70.1l1.5-2.1c2.3,1.9,4.7,3.3,8.3,3.3c4,0,6-2.3,6-5c0-3.1-3.3-4.6-6.4-5.7c-3.9-1.4-8.1-3-8.1-7.6
		c0-3.9,3.1-7.1,8.7-7.1c2.9,0,5.8,1.2,7.7,2.8l-1.5,2c-1.8-1.3-3.6-2.4-6.2-2.4c-4,0-5.8,2.2-5.8,4.6c0,2.9,2.9,4,5.9,5.2
		c4.1,1.5,8.5,3,8.5,8.1c0,4.1-3.2,7.5-9.1,7.5C784.9,73.7,781.5,72.1,779,70.1z"/>
</g>
</svg>
