<svg width="31" height="31" viewBox="0 0 31 31" fill="none" xmlns="http://www.w3.org/2000/svg">
<g id="Local-company-circle">
<circle id="Ellipse 85" cx="15.5" cy="15.5" r="15.5" fill="#D91B5C"/>
<circle id="Ellipse 86" cx="15.5" cy="15.5" r="12.5" fill="white"/>
<path id="&#239;&#149;&#143;" d="M24.1131 13.5898L21.6249 9.21484C21.4608 8.94141 21.1874 8.75 20.8592 8.75H10.1131C9.81237 8.75 9.51159 8.94141 9.34752 9.21484L6.85924 13.5898C6.53112 14.1641 6.94127 14.875 7.62487 14.875H8.49987V21.793C8.49987 22.3398 8.88268 22.75 9.37487 22.75H16.3749C16.8397 22.75 17.2499 22.3398 17.2499 21.793V14.875H21.1874V22.3125C21.1874 22.5586 21.3788 22.75 21.6249 22.75H22.0624C22.2811 22.75 22.4999 22.5586 22.4999 22.3125V14.875H23.3749C24.0311 14.875 24.4413 14.1641 24.1131 13.5898ZM15.9374 21.4375H9.81237V18.8398H15.9374V21.4375ZM15.9374 17.5273H9.81237V14.875H15.9374V17.5273ZM8.36315 13.5625L10.3592 10.0625H20.6131L22.6092 13.5625H8.36315Z" fill="#D91B5C"/>
</g>
</svg>
