<svg width="47" height="62" viewBox="0 0 47 62" fill="none" xmlns="http://www.w3.org/2000/svg">
<g filter="url(#filter0_d)">
<path fill-rule="evenodd" clip-rule="evenodd" d="M38.0863 23.7556C38.6777 22.1145 39 20.3449 39 18.5C39 9.93959 32.0604 3 23.5 3C14.9396 3 8 9.93959 8 18.5C8 20.3449 8.32232 22.1145 8.91371 23.7556C11.552 32.3747 19.2632 43.3065 23.5 48.5C27.7368 43.3065 35.448 32.3747 38.0863 23.7556Z" fill="#D5A0FE"/>
</g>
<circle cx="23.5" cy="18.5" r="12.5" fill="white"/>
<path d="M20.5 15.625C20.5 15.8438 20.6562 16 20.875 16H22.125C22.3125 16 22.5 15.8438 22.5 15.625V14.375C22.5 14.1875 22.3125 14 22.125 14H20.875C20.6562 14 20.5 14.1875 20.5 14.375V15.625ZM24.875 16H26.125C26.3125 16 26.5 15.8438 26.5 15.625V14.375C26.5 14.1875 26.3125 14 26.125 14H24.875C24.6562 14 24.5 14.1875 24.5 14.375V15.625C24.5 15.8438 24.6562 16 24.875 16ZM20.875 19H22.125C22.3125 19 22.5 18.8438 22.5 18.625V17.375C22.5 17.1875 22.3125 17 22.125 17H20.875C20.6562 17 20.5 17.1875 20.5 17.375V18.625C20.5 18.8438 20.6562 19 20.875 19ZM24.875 19H26.125C26.3125 19 26.5 18.8438 26.5 18.625V17.375C26.5 17.1875 26.3125 17 26.125 17H24.875C24.6562 17 24.5 17.1875 24.5 17.375V18.625C24.5 18.8438 24.6562 19 24.875 19ZM22.5 21.625V20.375C22.5 20.1875 22.3125 20 22.125 20H20.875C20.6562 20 20.5 20.1875 20.5 20.375V21.625C20.5 21.8438 20.6562 22 20.875 22H22.125C22.3125 22 22.5 21.8438 22.5 21.625ZM24.875 22H26.125C26.3125 22 26.5 21.8438 26.5 21.625V20.375C26.5 20.1875 26.3125 20 26.125 20H24.875C24.6562 20 24.5 20.1875 24.5 20.375V21.625C24.5 21.8438 24.6562 22 24.875 22ZM30.5 25.875C30.5 25.6875 30.3125 25.5 30.125 25.5H29.5V11.75C29.5 11.3438 29.1562 11 28.75 11H18.2188C17.8125 11 17.4688 11.3438 17.4688 11.75V25.5H16.875C16.6562 25.5 16.5 25.6875 16.5 25.875V27H30.5V25.875ZM18.9688 25.4688L19 12.5L28 12.5312V25.4688H24.5V23.375C24.5 23.1875 24.3125 23 24.125 23H22.875C22.6562 23 22.5 23.1875 22.5 23.375V25.4688H18.9688Z" fill="#D5A0FE"/>
<defs>
<filter id="filter0_d" x="0" y="0" width="47" height="61.5" filterUnits="userSpaceOnUse" color-interpolation-filters="sRGB">
<feFlood flood-opacity="0" result="BackgroundImageFix"/>
<feColorMatrix in="SourceAlpha" type="matrix" values="0 0 0 0 0 0 0 0 0 0 0 0 0 0 0 0 0 0 127 0" result="hardAlpha"/>
<feOffset dy="5"/>
<feGaussianBlur stdDeviation="4"/>
<feColorMatrix type="matrix" values="0 0 0 0 0.0823529 0 0 0 0 0.219686 0 0 0 0 0.486275 0 0 0 0.44 0"/>
<feBlend mode="normal" in2="BackgroundImageFix" result="effect1_dropShadow"/>
<feBlend mode="normal" in="SourceGraphic" in2="effect1_dropShadow" result="shape"/>
</filter>
</defs>
</svg>
