<svg width="51" height="68" viewBox="0 0 51 68" fill="none" xmlns="http://www.w3.org/2000/svg">
<g filter="url(#filter0_d)">
<path fill-rule="evenodd" clip-rule="evenodd" d="M41.9685 26.4979C42.6361 24.6451 43 22.6474 43 20.5646C43 20.5646 43 20.5645 43 20.5645C43 10.8995 35.165 3.06451 25.5 3.06451C15.835 3.06451 8 10.8995 8 20.5645C8 22.6474 8.3639 24.6454 9.0316 26.4982C12.0103 36.2295 20.7165 48.5718 25.5 54.4355V54.4355C30.2836 48.5718 38.9899 36.2292 41.9685 26.4979Z" fill="#02DCB5"/>
</g>
<circle cx="25.5" cy="20.5" r="14.5" fill="white"/>
<path d="M15.7966 22.32L16.5106 21.578C17.0146 22.11 17.5512 22.516 18.1206 22.796C18.6992 23.0667 19.3059 23.202 19.9406 23.202C20.7059 23.202 21.3359 23.02 21.8306 22.656C22.3252 22.292 22.5726 21.83 22.5726 21.27C22.5726 20.766 22.3952 20.3787 22.0406 20.108C21.6952 19.8373 21.1212 19.6367 20.3186 19.506L18.9046 19.282C17.9619 19.1327 17.2666 18.8573 16.8186 18.456C16.3706 18.0453 16.1466 17.4947 16.1466 16.804C16.1466 15.992 16.4639 15.334 17.0986 14.83C17.7332 14.326 18.5639 14.074 19.5906 14.074C20.2719 14.074 20.9486 14.186 21.6206 14.41C22.2926 14.634 22.9039 14.956 23.4546 15.376L22.8386 16.216C22.3066 15.8147 21.7652 15.5113 21.2146 15.306C20.6639 15.1007 20.1086 14.998 19.5486 14.998C18.8486 14.998 18.2792 15.1613 17.8406 15.488C17.4112 15.8053 17.1966 16.216 17.1966 16.72C17.1966 17.1773 17.3506 17.5273 17.6586 17.77C17.9666 18.0127 18.4752 18.19 19.1846 18.302L20.5846 18.526C21.6486 18.7033 22.4232 19.0067 22.9086 19.436C23.4032 19.8653 23.6506 20.458 23.6506 21.214C23.6506 21.6433 23.5572 22.04 23.3706 22.404C23.1932 22.7587 22.9366 23.0667 22.6006 23.328C22.2739 23.58 21.8772 23.7807 21.4106 23.93C20.9532 24.07 20.4492 24.14 19.8986 24.14C19.1239 24.14 18.3772 23.986 17.6586 23.678C16.9492 23.3607 16.3286 22.908 15.7966 22.32ZM34.7471 19.1C34.7471 19.8 34.6164 20.4627 34.3551 21.088C34.0938 21.704 33.7344 22.2407 33.2771 22.698C32.8291 23.146 32.2971 23.5007 31.6811 23.762C31.0651 24.0233 30.4071 24.154 29.7071 24.154C29.0071 24.154 28.3444 24.0233 27.7191 23.762C27.1031 23.5007 26.5664 23.146 26.1091 22.698C25.6611 22.2407 25.3064 21.704 25.0451 21.088C24.7838 20.4627 24.6531 19.8 24.6531 19.1C24.6531 18.4 24.7838 17.742 25.0451 17.126C25.3064 16.5007 25.6611 15.964 26.1091 15.516C26.5664 15.0587 27.1031 14.6993 27.7191 14.438C28.3444 14.1767 29.0071 14.046 29.7071 14.046C30.4071 14.046 31.0651 14.1767 31.6811 14.438C32.2971 14.6993 32.8291 15.0587 33.2771 15.516C33.7344 15.964 34.0938 16.5007 34.3551 17.126C34.6164 17.742 34.7471 18.4 34.7471 19.1ZM33.6551 19.1C33.6551 18.5307 33.5524 17.9987 33.3471 17.504C33.1418 17 32.8618 16.5707 32.5071 16.216C32.1618 15.852 31.7464 15.5673 31.2611 15.362C30.7758 15.1473 30.2578 15.04 29.7071 15.04C29.1471 15.04 28.6244 15.1473 28.1391 15.362C27.6538 15.5673 27.2338 15.852 26.8791 16.216C26.5338 16.5707 26.2584 17 26.0531 17.504C25.8478 17.9987 25.7451 18.5307 25.7451 19.1C25.7451 19.6693 25.8478 20.2013 26.0531 20.696C26.2584 21.1907 26.5338 21.62 26.8791 21.984C27.2338 22.348 27.6538 22.6373 28.1391 22.852C28.6244 23.0573 29.1471 23.16 29.7071 23.16C30.2578 23.16 30.7758 23.0573 31.2611 22.852C31.7464 22.6373 32.1618 22.348 32.5071 21.984C32.8618 21.62 33.1418 21.1907 33.3471 20.696C33.5524 20.2013 33.6551 19.6693 33.6551 19.1Z" fill="#02DCB5"/>
<defs>
<filter id="filter0_d" x="0" y="0.0645142" width="51" height="67.371" filterUnits="userSpaceOnUse" color-interpolation-filters="sRGB">
<feFlood flood-opacity="0" result="BackgroundImageFix"/>
<feColorMatrix in="SourceAlpha" type="matrix" values="0 0 0 0 0 0 0 0 0 0 0 0 0 0 0 0 0 0 127 0" result="hardAlpha"/>
<feOffset dy="5"/>
<feGaussianBlur stdDeviation="4"/>
<feColorMatrix type="matrix" values="0 0 0 0 0.0823529 0 0 0 0 0.219686 0 0 0 0 0.486275 0 0 0 0.44 0"/>
<feBlend mode="normal" in2="BackgroundImageFix" result="effect1_dropShadow"/>
<feBlend mode="normal" in="SourceGraphic" in2="effect1_dropShadow" result="shape"/>
</filter>
</defs>
</svg>
