<svg width="31" height="31" viewBox="0 0 31 31" fill="none" xmlns="http://www.w3.org/2000/svg">
<circle cx="15.5" cy="15.5" r="15.5" fill="#02DCB5"/>
<circle cx="15.5" cy="15.5" r="12.5" fill="white"/>
<path d="M5.79688 18.32L6.51087 17.578C7.01487 18.11 7.55154 18.516 8.12088 18.796C8.69954 19.0667 9.30621 19.202 9.94088 19.202C10.7062 19.202 11.3362 19.02 11.8309 18.656C12.3255 18.292 12.5729 17.83 12.5729 17.27C12.5729 16.766 12.3955 16.3787 12.0409 16.108C11.6955 15.8374 11.1215 15.6367 10.3189 15.506L8.90488 15.282C7.96221 15.1327 7.26688 14.8574 6.81888 14.456C6.37088 14.0454 6.14687 13.4947 6.14687 12.804C6.14687 11.992 6.46421 11.334 7.09887 10.83C7.73354 10.326 8.56421 10.074 9.59087 10.074C10.2722 10.074 10.9489 10.186 11.6209 10.41C12.2929 10.634 12.9042 10.956 13.4549 11.376L12.8389 12.216C12.3069 11.8147 11.7655 11.5114 11.2149 11.306C10.6642 11.1007 10.1089 10.998 9.54888 10.998C8.84888 10.998 8.27954 11.1614 7.84087 11.488C7.41154 11.8054 7.19687 12.216 7.19687 12.72C7.19687 13.1774 7.35088 13.5274 7.65888 13.77C7.96688 14.0127 8.47554 14.19 9.18488 14.302L10.5849 14.526C11.6489 14.7034 12.4235 15.0067 12.9089 15.436C13.4035 15.8654 13.6509 16.458 13.6509 17.214C13.6509 17.6434 13.5575 18.04 13.3709 18.404C13.1935 18.7587 12.9369 19.0667 12.6009 19.328C12.2742 19.58 11.8775 19.7807 11.4109 19.93C10.9535 20.07 10.4495 20.14 9.89888 20.14C9.12421 20.14 8.37754 19.986 7.65888 19.678C6.94954 19.3607 6.32888 18.908 5.79688 18.32Z" fill="#02DCB5"/>
<path d="M24.7474 15.1C24.7474 15.8 24.6167 16.4627 24.3554 17.088C24.0941 17.704 23.7347 18.2407 23.2774 18.698C22.8294 19.146 22.2974 19.5007 21.6814 19.762C21.0654 20.0234 20.4074 20.154 19.7074 20.154C19.0074 20.154 18.3447 20.0234 17.7194 19.762C17.1034 19.5007 16.5667 19.146 16.1094 18.698C15.6614 18.2407 15.3067 17.704 15.0454 17.088C14.7841 16.4627 14.6534 15.8 14.6534 15.1C14.6534 14.4 14.7841 13.742 15.0454 13.126C15.3067 12.5007 15.6614 11.964 16.1094 11.516C16.5667 11.0587 17.1034 10.6994 17.7194 10.438C18.3447 10.1767 19.0074 10.046 19.7074 10.046C20.4074 10.046 21.0654 10.1767 21.6814 10.438C22.2974 10.6994 22.8294 11.0587 23.2774 11.516C23.7347 11.964 24.0941 12.5007 24.3554 13.126C24.6167 13.742 24.7474 14.4 24.7474 15.1ZM23.6554 15.1C23.6554 14.5307 23.5527 13.9987 23.3474 13.504C23.1421 13 22.8621 12.5707 22.5074 12.216C22.1621 11.852 21.7467 11.5674 21.2614 11.362C20.7761 11.1474 20.2581 11.04 19.7074 11.04C19.1474 11.04 18.6247 11.1474 18.1394 11.362C17.6541 11.5674 17.2341 11.852 16.8794 12.216C16.5341 12.5707 16.2587 13 16.0534 13.504C15.8481 13.9987 15.7454 14.5307 15.7454 15.1C15.7454 15.6694 15.8481 16.2014 16.0534 16.696C16.2587 17.1907 16.5341 17.62 16.8794 17.984C17.2341 18.348 17.6541 18.6374 18.1394 18.852C18.6247 19.0574 19.1474 19.16 19.7074 19.16C20.2581 19.16 20.7761 19.0574 21.2614 18.852C21.7467 18.6374 22.1621 18.348 22.5074 17.984C22.8621 17.62 23.1421 17.1907 23.3474 16.696C23.5527 16.2014 23.6554 15.6694 23.6554 15.1Z" fill="#02DCB5"/>
</svg>
