<svg width="47" height="62" viewBox="0 0 47 62" fill="none" xmlns="http://www.w3.org/2000/svg">
<g filter="url(#filter0_d)">
<path fill-rule="evenodd" clip-rule="evenodd" d="M38.0863 23.7556C38.6777 22.1145 39 20.3449 39 18.5C39 9.93959 32.0604 3 23.5 3C14.9396 3 8 9.93959 8 18.5C8 20.3449 8.32232 22.1145 8.91371 23.7556C11.552 32.3747 19.2632 43.3065 23.5 48.5C27.7368 43.3065 35.448 32.3747 38.0863 23.7556Z" fill="#FEA0E9"/>
</g>
<circle cx="23.5" cy="18.5" r="12.5" fill="white"/>
<path d="M23.5 16.75C22.25 16.75 21.25 17.7812 21.25 19C21.25 20.25 22.25 21.25 23.5 21.25C24.7188 21.25 25.75 20.25 25.75 19C25.75 17.7812 24.7188 16.75 23.5 16.75ZM23.5 19.75C23.0625 19.75 22.75 19.4375 22.75 19C22.75 18.5938 23.0625 18.25 23.5 18.25C23.9062 18.25 24.25 18.5938 24.25 19C24.25 19.4375 23.9062 19.75 23.5 19.75ZM29 16.75C27.75 16.75 26.75 17.7812 26.75 19C26.75 20.25 27.75 21.25 29 21.25C30.2188 21.25 31.25 20.25 31.25 19C31.25 17.7812 30.2188 16.75 29 16.75ZM29 19.75C28.5625 19.75 28.25 19.4375 28.25 19C28.25 18.5938 28.5625 18.25 29 18.25C29.4062 18.25 29.75 18.5938 29.75 19C29.75 19.4375 29.4062 19.75 29 19.75ZM18 16.75C16.75 16.75 15.75 17.7812 15.75 19C15.75 20.25 16.75 21.25 18 21.25C19.2188 21.25 20.25 20.25 20.25 19C20.25 17.7812 19.2188 16.75 18 16.75ZM18 19.75C17.5625 19.75 17.25 19.4375 17.25 19C17.25 18.5938 17.5625 18.25 18 18.25C18.4062 18.25 18.75 18.5938 18.75 19C18.75 19.4375 18.4062 19.75 18 19.75Z" fill="#FEA0E9"/>
<defs>
<filter id="filter0_d" x="0" y="0" width="47" height="61.5" filterUnits="userSpaceOnUse" color-interpolation-filters="sRGB">
<feFlood flood-opacity="0" result="BackgroundImageFix"/>
<feColorMatrix in="SourceAlpha" type="matrix" values="0 0 0 0 0 0 0 0 0 0 0 0 0 0 0 0 0 0 127 0"/>
<feOffset dy="5"/>
<feGaussianBlur stdDeviation="4"/>
<feColorMatrix type="matrix" values="0 0 0 0 0.0823529 0 0 0 0 0.219686 0 0 0 0 0.486275 0 0 0 0.44 0"/>
<feBlend mode="normal" in2="BackgroundImageFix" result="effect1_dropShadow"/>
<feBlend mode="normal" in="SourceGraphic" in2="effect1_dropShadow" result="shape"/>
</filter>
</defs>
</svg>
