<svg width="47" height="62" viewBox="0 0 47 62" fill="none" xmlns="http://www.w3.org/2000/svg">
<g filter="url(#filter0_d)">
<path fill-rule="evenodd" clip-rule="evenodd" d="M38.0863 23.7556C38.6777 22.1145 39 20.3449 39 18.5C39 9.93959 32.0604 3 23.5 3C14.9396 3 8 9.93959 8 18.5C8 20.3449 8.32232 22.1145 8.91371 23.7556C11.552 32.3747 19.2632 43.3065 23.5 48.5C27.7368 43.3065 35.448 32.3747 38.0863 23.7556Z" fill="#FBC231"/>
</g>
<circle cx="23.5" cy="18.5" r="12.5" fill="white"/>
<path d="M32.4375 15.625L24.375 13.1562C23.7812 12.9688 23.1875 12.9688 22.5938 13.1562L14.5312 15.625C13.9062 15.8438 13.5 16.375 13.5 17.0312C13.5 17.6562 13.9062 18.1875 14.5312 18.4062L15.2188 18.625C15.1562 18.7812 15.0938 18.9375 15.0625 19.125C14.7188 19.2812 14.5 19.625 14.5 20.0312C14.5 20.3438 14.6562 20.625 14.9062 20.8125L14.125 24.4062C14.0625 24.7188 14.2812 25 14.5938 25H16.375C16.6875 25 16.9062 24.7188 16.8438 24.4062L16.0625 20.8125C16.3125 20.625 16.5 20.3438 16.5 20.0312C16.5 19.6875 16.3125 19.4062 16.0625 19.2188C16.0938 19.125 16.1562 19 16.2188 18.9062L17.9375 19.4375L17.5 23C17.5 24.125 20.1562 25 23.5 25C26.8125 25 29.5 24.125 29.5 23L29.0312 19.4375L32.4375 18.4062C33.0625 18.1875 33.5 17.6562 33.5 17.0312C33.5 16.375 33.0625 15.8438 32.4375 15.625ZM27.9375 22.7188C26.0625 23.7812 20.875 23.7812 19.0312 22.7188L19.375 19.9062L22.5938 20.875C22.9375 21 23.5938 21.125 24.375 20.875L27.5938 19.9062L27.9375 22.7188ZM23.9375 19.4375C23.6562 19.5312 23.3125 19.5312 23.0312 19.4375L18.3125 18L23.5625 17C23.8438 16.9688 24.0312 16.6875 23.9688 16.4375C23.9375 16.1562 23.6562 15.9688 23.4062 16.0312L17.0312 17.2188C16.8125 17.25 16.625 17.3438 16.4375 17.4062L15.1562 17L23.0312 14.5938C23.3125 14.5 23.6562 14.5 23.9375 14.5938L31.8125 17.0312L23.9375 19.4375Z" fill="#FBC231"/>
<defs>
<filter id="filter0_d" x="0" y="0" width="47" height="61.5" filterUnits="userSpaceOnUse" color-interpolation-filters="sRGB">
<feFlood flood-opacity="0" result="BackgroundImageFix"/>
<feColorMatrix in="SourceAlpha" type="matrix" values="0 0 0 0 0 0 0 0 0 0 0 0 0 0 0 0 0 0 127 0"/>
<feOffset dy="5"/>
<feGaussianBlur stdDeviation="4"/>
<feColorMatrix type="matrix" values="0 0 0 0 0.0823529 0 0 0 0 0.219686 0 0 0 0 0.486275 0 0 0 0.44 0"/>
<feBlend mode="normal" in2="BackgroundImageFix" result="effect1_dropShadow"/>
<feBlend mode="normal" in="SourceGraphic" in2="effect1_dropShadow" result="shape"/>
</filter>
</defs>
</svg>
