<svg width="47" height="62" viewBox="0 0 47 62" fill="none" xmlns="http://www.w3.org/2000/svg">
<g filter="url(#filter0_d)">
<path fill-rule="evenodd" clip-rule="evenodd" d="M38.0863 23.7556C38.6777 22.1145 39 20.3449 39 18.5C39 9.93959 32.0604 3 23.5 3C14.9396 3 8 9.93959 8 18.5C8 20.3449 8.32232 22.1145 8.91371 23.7556C11.552 32.3747 19.2632 43.3065 23.5 48.5C27.7368 43.3065 35.448 32.3747 38.0863 23.7556Z" fill="#D91B5C"/>
</g>
<circle cx="23.5" cy="18.5" r="12.5" fill="white"/>
<path d="M14.9245 21.32L15.6385 20.578C16.1425 21.11 16.6792 21.516 17.2485 21.796C17.8272 22.0667 18.4338 22.202 19.0685 22.202C19.8338 22.202 20.4638 22.02 20.9585 21.656C21.4532 21.292 21.7005 20.83 21.7005 20.27C21.7005 19.766 21.5232 19.3787 21.1685 19.108C20.8232 18.8373 20.2492 18.6367 19.4465 18.506L18.0325 18.282C17.0898 18.1327 16.3945 17.8573 15.9465 17.456C15.4985 17.0453 15.2745 16.4947 15.2745 15.804C15.2745 14.992 15.5918 14.334 16.2265 13.83C16.8612 13.326 17.6918 13.074 18.7185 13.074C19.3998 13.074 20.0765 13.186 20.7485 13.41C21.4205 13.634 22.0318 13.956 22.5825 14.376L21.9665 15.216C21.4345 14.8147 20.8932 14.5113 20.3425 14.306C19.7918 14.1007 19.2365 13.998 18.6765 13.998C17.9765 13.998 17.4072 14.1613 16.9685 14.488C16.5392 14.8053 16.3245 15.216 16.3245 15.72C16.3245 16.1773 16.4785 16.5273 16.7865 16.77C17.0945 17.0127 17.6032 17.19 18.3125 17.302L19.7125 17.526C20.7765 17.7033 21.5512 18.0067 22.0365 18.436C22.5312 18.8653 22.7785 19.458 22.7785 20.214C22.7785 20.6433 22.6852 21.04 22.4985 21.404C22.3212 21.7587 22.0645 22.0667 21.7285 22.328C21.4018 22.58 21.0052 22.7807 20.5385 22.93C20.0812 23.07 19.5772 23.14 19.0265 23.14C18.2518 23.14 17.5052 22.986 16.7865 22.678C16.0772 22.3607 15.4565 21.908 14.9245 21.32ZM24.243 23V13.2H28.499C29.451 13.2 30.2164 13.4613 30.795 13.984C31.3737 14.4973 31.663 15.1787 31.663 16.028C31.663 16.8773 31.369 17.5633 30.781 18.086C30.2024 18.6087 29.4417 18.87 28.499 18.87H25.321V23H24.243ZM28.415 14.166H25.321V17.932H28.415C29.0777 17.932 29.605 17.764 29.997 17.428C30.389 17.0827 30.585 16.6207 30.585 16.042C30.585 15.4633 30.389 15.006 29.997 14.67C29.605 14.334 29.0777 14.166 28.415 14.166Z" fill="#D91B5C"/>
<defs>
<filter id="filter0_d" x="0" y="0" width="47" height="61.5" filterUnits="userSpaceOnUse" color-interpolation-filters="sRGB">
<feFlood flood-opacity="0" result="BackgroundImageFix"/>
<feColorMatrix in="SourceAlpha" type="matrix" values="0 0 0 0 0 0 0 0 0 0 0 0 0 0 0 0 0 0 127 0"/>
<feOffset dy="5"/>
<feGaussianBlur stdDeviation="4"/>
<feColorMatrix type="matrix" values="0 0 0 0 0.0823529 0 0 0 0 0.219686 0 0 0 0 0.486275 0 0 0 0.44 0"/>
<feBlend mode="normal" in2="BackgroundImageFix" result="effect1_dropShadow"/>
<feBlend mode="normal" in="SourceGraphic" in2="effect1_dropShadow" result="shape"/>
</filter>
</defs>
</svg>
