<svg width="51" height="68" viewBox="0 0 51 68" fill="none" xmlns="http://www.w3.org/2000/svg">
<g filter="url(#filter0_d)">
<path fill-rule="evenodd" clip-rule="evenodd" d="M41.9685 26.4979C42.6361 24.6451 43 22.6474 43 20.5646C43 20.5646 43 20.5645 43 20.5645C43 10.8995 35.165 3.06451 25.5 3.06451C15.835 3.06451 8 10.8995 8 20.5645C8 22.6474 8.3639 24.6454 9.0316 26.4982C12.0103 36.2295 20.7165 48.5718 25.5 54.4355V54.4355C30.2836 48.5718 38.9899 36.2292 41.9685 26.4979Z" fill="#FEA0E9"/>
</g>
<circle cx="25.5" cy="20.5" r="14.5" fill="white"/>
<path d="M17.1433 22.32L17.8573 21.578C18.3613 22.11 18.8979 22.516 19.4673 22.796C20.0459 23.0667 20.6526 23.202 21.2873 23.202C22.0526 23.202 22.6826 23.02 23.1773 22.656C23.6719 22.292 23.9193 21.83 23.9193 21.27C23.9193 20.766 23.7419 20.3787 23.3873 20.108C23.0419 19.8373 22.4679 19.6367 21.6653 19.506L20.2513 19.282C19.3086 19.1327 18.6133 18.8573 18.1653 18.456C17.7173 18.0453 17.4933 17.4947 17.4933 16.804C17.4933 15.992 17.8106 15.334 18.4453 14.83C19.0799 14.326 19.9106 14.074 20.9373 14.074C21.6186 14.074 22.2953 14.186 22.9673 14.41C23.6393 14.634 24.2506 14.956 24.8013 15.376L24.1853 16.216C23.6533 15.8147 23.1119 15.5113 22.5613 15.306C22.0106 15.1007 21.4553 14.998 20.8953 14.998C20.1953 14.998 19.6259 15.1613 19.1873 15.488C18.7579 15.8053 18.5433 16.216 18.5433 16.72C18.5433 17.1773 18.6973 17.5273 19.0053 17.77C19.3133 18.0127 19.8219 18.19 20.5313 18.302L21.9313 18.526C22.9953 18.7033 23.7699 19.0067 24.2553 19.436C24.7499 19.8653 24.9973 20.458 24.9973 21.214C24.9973 21.6433 24.9039 22.04 24.7173 22.404C24.5399 22.7587 24.2833 23.0667 23.9473 23.328C23.6206 23.58 23.2239 23.7807 22.7573 23.93C22.2999 24.07 21.7959 24.14 21.2453 24.14C20.4706 24.14 19.7239 23.986 19.0053 23.678C18.2959 23.3607 17.6753 22.908 17.1433 22.32ZM26.4618 24V14.2H33.4758V15.152H27.5398V18.582H31.4178V19.52H27.5398V23.048H33.5318V24H26.4618Z" fill="#FEA0E9"/>
<defs>
<filter id="filter0_d" x="0" y="0.0645142" width="51" height="67.371" filterUnits="userSpaceOnUse" color-interpolation-filters="sRGB">
<feFlood flood-opacity="0" result="BackgroundImageFix"/>
<feColorMatrix in="SourceAlpha" type="matrix" values="0 0 0 0 0 0 0 0 0 0 0 0 0 0 0 0 0 0 127 0" result="hardAlpha"/>
<feOffset dy="5"/>
<feGaussianBlur stdDeviation="4"/>
<feColorMatrix type="matrix" values="0 0 0 0 0.0823529 0 0 0 0 0.219686 0 0 0 0 0.486275 0 0 0 0.44 0"/>
<feBlend mode="normal" in2="BackgroundImageFix" result="effect1_dropShadow"/>
<feBlend mode="normal" in="SourceGraphic" in2="effect1_dropShadow" result="shape"/>
</filter>
</defs>
</svg>
