<svg width="31" height="31" viewBox="0 0 31 31" fill="none" xmlns="http://www.w3.org/2000/svg">
<circle cx="15.5" cy="15.5" r="15.5" fill="#FEA0E9"/>
<circle cx="15.5" cy="15.5" r="12.5" fill="white"/>
<path d="M7.14355 18.32L7.85755 17.578C8.36155 18.11 8.89822 18.516 9.46756 18.796C10.0462 19.0666 10.6529 19.202 11.2876 19.202C12.0529 19.202 12.6829 19.02 13.1776 18.656C13.6722 18.292 13.9196 17.83 13.9196 17.27C13.9196 16.766 13.7422 16.3786 13.3876 16.108C13.0422 15.8373 12.4682 15.6366 11.6656 15.506L10.2516 15.282C9.30889 15.1326 8.61355 14.8573 8.16556 14.456C7.71755 14.0453 7.49356 13.4946 7.49356 12.804C7.49356 11.992 7.81089 11.334 8.44555 10.83C9.08022 10.326 9.91089 10.074 10.9376 10.074C11.6189 10.074 12.2956 10.186 12.9676 10.41C13.6396 10.634 14.2509 10.956 14.8016 11.376L14.1856 12.216C13.6536 11.8146 13.1122 11.5113 12.5616 11.306C12.0109 11.1006 11.4556 10.998 10.8956 10.998C10.1956 10.998 9.62622 11.1613 9.18755 11.488C8.75822 11.8053 8.54355 12.216 8.54355 12.72C8.54355 13.1773 8.69756 13.5273 9.00556 13.77C9.31356 14.0126 9.82222 14.19 10.5316 14.302L11.9316 14.526C12.9956 14.7033 13.7702 15.0066 14.2556 15.436C14.7502 15.8653 14.9976 16.458 14.9976 17.214C14.9976 17.6433 14.9042 18.04 14.7176 18.404C14.5402 18.7586 14.2836 19.0666 13.9476 19.328C13.6209 19.58 13.2242 19.7806 12.7576 19.93C12.3002 20.07 11.7962 20.14 11.2456 20.14C10.4709 20.14 9.72422 19.986 9.00556 19.678C8.29622 19.3606 7.67555 18.908 7.14355 18.32Z" fill="#FEA0E9"/>
<path d="M16.4621 20V10.2H23.4761V11.152H17.5401V14.582H21.4181V15.52H17.5401V19.048H23.5321V20H16.4621Z" fill="#FEA0E9"/>
</svg>
