<svg width="31" height="31" viewBox="0 0 31 31" fill="none" xmlns="http://www.w3.org/2000/svg">
<circle cx="15.5" cy="15.5" r="15.5" fill="#D5A0FE"/>
<circle cx="15.5" cy="15.5" r="12.5" fill="white"/>
<path d="M12.875 12.7969C12.875 12.9883 13.0117 13.125 13.2031 13.125H14.2969C14.4609 13.125 14.625 12.9883 14.625 12.7969V11.7031C14.625 11.5391 14.4609 11.375 14.2969 11.375H13.2031C13.0117 11.375 12.875 11.5391 12.875 11.7031V12.7969ZM16.7031 13.125H17.7969C17.9609 13.125 18.125 12.9883 18.125 12.7969V11.7031C18.125 11.5391 17.9609 11.375 17.7969 11.375H16.7031C16.5117 11.375 16.375 11.5391 16.375 11.7031V12.7969C16.375 12.9883 16.5117 13.125 16.7031 13.125ZM13.2031 15.75H14.2969C14.4609 15.75 14.625 15.6133 14.625 15.4219V14.3281C14.625 14.1641 14.4609 14 14.2969 14H13.2031C13.0117 14 12.875 14.1641 12.875 14.3281V15.4219C12.875 15.6133 13.0117 15.75 13.2031 15.75ZM16.7031 15.75H17.7969C17.9609 15.75 18.125 15.6133 18.125 15.4219V14.3281C18.125 14.1641 17.9609 14 17.7969 14H16.7031C16.5117 14 16.375 14.1641 16.375 14.3281V15.4219C16.375 15.6133 16.5117 15.75 16.7031 15.75ZM14.625 18.0469V16.9531C14.625 16.7891 14.4609 16.625 14.2969 16.625H13.2031C13.0117 16.625 12.875 16.7891 12.875 16.9531V18.0469C12.875 18.2383 13.0117 18.375 13.2031 18.375H14.2969C14.4609 18.375 14.625 18.2383 14.625 18.0469ZM16.7031 18.375H17.7969C17.9609 18.375 18.125 18.2383 18.125 18.0469V16.9531C18.125 16.7891 17.9609 16.625 17.7969 16.625H16.7031C16.5117 16.625 16.375 16.7891 16.375 16.9531V18.0469C16.375 18.2383 16.5117 18.375 16.7031 18.375ZM21.625 21.7656C21.625 21.6016 21.4609 21.4375 21.2969 21.4375H20.75V9.40625C20.75 9.05078 20.4492 8.75 20.0938 8.75H10.8789C10.5234 8.75 10.2227 9.05078 10.2227 9.40625V21.4375H9.70312C9.51172 21.4375 9.375 21.6016 9.375 21.7656V22.75H21.625V21.7656ZM11.5352 21.4102L11.5625 10.0625L19.4375 10.0898V21.4102H16.375V19.5781C16.375 19.4141 16.2109 19.25 16.0469 19.25H14.9531C14.7617 19.25 14.625 19.4141 14.625 19.5781V21.4102H11.5352Z" fill="#D5A0FE"/>
</svg>
