<svg width="31" height="31" viewBox="0 0 31 31" fill="none" xmlns="http://www.w3.org/2000/svg">
<g id="STEMBP-Circle">
<circle id="Ellipse 79" cx="15.5" cy="15.5" r="15.5" fill="#A2CD6A"/>
<circle id="Ellipse 80" cx="15.5" cy="15.5" r="12.5" fill="white"/>
<path id="&#239;&#152;&#144;" d="M21.5156 21.4375H20.3945C21.4062 20.5352 22.0625 19.1953 22.0625 17.7188C22.0625 15.0391 19.9023 12.8242 17.25 12.7148V11.4297C17.25 10.9102 16.9492 10.4727 16.5391 10.2539V9.76172C16.5391 9.21484 16.1016 8.75 15.5547 8.75H12.793C12.2461 8.75 11.8086 9.21484 11.8086 9.76172V10.2539C11.3984 10.4727 11.125 10.9102 11.125 11.4297V16.8164C11.125 17.418 11.5078 17.9375 12.0547 18.1016V19.1406C12.0547 19.6875 12.4922 20.125 13.0664 20.125H15.2812C15.8555 20.125 16.293 19.6875 16.293 19.1406V18.1016C16.8398 17.9375 17.2227 17.418 17.2227 16.8164V14.0273C19.1914 14.1641 20.7227 15.75 20.7227 17.7188C20.7227 19.7695 19.0547 21.4375 17.0039 21.4375H9.48438C8.9375 21.4375 8.5 21.9023 8.5 22.4219C8.5 22.6133 8.63672 22.75 8.82812 22.75H22.1719C22.3359 22.75 22.5 22.6133 22.5 22.4219C22.5 21.9023 22.0352 21.4375 21.5156 21.4375ZM13.3672 18.8125V17.7188H14.9805V18.8125H13.3672ZM15.8828 16.8438H12.4648L12.4375 16.8164L12.4648 11.375H13.1211V10.0625H15.2266L15.2812 11.375H15.9375L15.8828 16.8438Z" fill="#A2CD6A"/>
</g>
</svg>
