<svg width="31" height="31" viewBox="0 0 31 31" fill="none" xmlns="http://www.w3.org/2000/svg">
<circle cx="15.5" cy="15.5" r="15.5" fill="#D91B5C"/>
<circle cx="15.5" cy="15.5" r="12.5" fill="white"/>
<path d="M6.9248 18.32L7.6388 17.578C8.1428 18.11 8.67947 18.516 9.2488 18.796C9.82747 19.0666 10.4341 19.202 11.0688 19.202C11.8341 19.202 12.4641 19.02 12.9588 18.656C13.4535 18.292 13.7008 17.83 13.7008 17.27C13.7008 16.766 13.5235 16.3786 13.1688 16.108C12.8235 15.8373 12.2495 15.6366 11.4468 15.506L10.0328 15.282C9.09014 15.1326 8.3948 14.8573 7.9468 14.456C7.4988 14.0453 7.2748 13.4946 7.2748 12.804C7.2748 11.992 7.59214 11.334 8.2268 10.83C8.86147 10.326 9.69214 10.074 10.7188 10.074C11.4001 10.074 12.0768 10.186 12.7488 10.41C13.4208 10.634 14.0321 10.956 14.5828 11.376L13.9668 12.216C13.4348 11.8146 12.8935 11.5113 12.3428 11.306C11.7921 11.1006 11.2368 10.998 10.6768 10.998C9.9768 10.998 9.40747 11.1613 8.9688 11.488C8.53947 11.8053 8.3248 12.216 8.3248 12.72C8.3248 13.1773 8.4788 13.5273 8.7868 13.77C9.0948 14.0126 9.60347 14.19 10.3128 14.302L11.7128 14.526C12.7768 14.7033 13.5515 15.0066 14.0368 15.436C14.5315 15.8653 14.7788 16.458 14.7788 17.214C14.7788 17.6433 14.6855 18.04 14.4988 18.404C14.3215 18.7586 14.0648 19.0666 13.7288 19.328C13.4021 19.58 13.0055 19.7806 12.5388 19.93C12.0815 20.07 11.5775 20.14 11.0268 20.14C10.2521 20.14 9.50547 19.986 8.7868 19.678C8.07747 19.3606 7.4568 18.908 6.9248 18.32Z" fill="#D91B5C"/>
<path d="M16.2433 20V10.2H20.4993C21.4513 10.2 22.2167 10.4613 22.7953 10.984C23.374 11.4973 23.6633 12.1786 23.6633 13.028C23.6633 13.8773 23.3693 14.5633 22.7813 15.086C22.2027 15.6086 21.442 15.87 20.4993 15.87H17.3213V20H16.2433ZM20.4153 11.166H17.3213V14.932H20.4153C21.078 14.932 21.6053 14.764 21.9973 14.428C22.3893 14.0826 22.5853 13.6206 22.5853 13.042C22.5853 12.4633 22.3893 12.006 21.9973 11.67C21.6053 11.334 21.078 11.166 20.4153 11.166Z" fill="#D91B5C"/>
</svg>
