<svg width="31" height="31" viewBox="0 0 31 31" fill="none" xmlns="http://www.w3.org/2000/svg">
<circle cx="15.5" cy="15.5" r="15.5" fill="#D5A0FE"/>
<circle cx="15.5" cy="15.5" r="12.5" fill="white"/>
<path d="M6.40527 18.32L7.11927 17.578C7.62327 18.11 8.15994 18.516 8.72927 18.796C9.30794 19.0667 9.91461 19.202 10.5493 19.202C11.3146 19.202 11.9446 19.02 12.4393 18.656C12.9339 18.292 13.1813 17.83 13.1813 17.27C13.1813 16.766 13.0039 16.3787 12.6493 16.108C12.3039 15.8374 11.7299 15.6367 10.9273 15.506L9.51327 15.282C8.57061 15.1327 7.87527 14.8574 7.42727 14.456C6.97927 14.0454 6.75527 13.4947 6.75527 12.804C6.75527 11.992 7.07261 11.334 7.70727 10.83C8.34194 10.326 9.17261 10.074 10.1993 10.074C10.8806 10.074 11.5573 10.186 12.2293 10.41C12.9013 10.634 13.5126 10.956 14.0633 11.376L13.4473 12.216C12.9153 11.8147 12.3739 11.5114 11.8233 11.306C11.2726 11.1007 10.7173 10.998 10.1573 10.998C9.45727 10.998 8.88794 11.1614 8.44927 11.488C8.01994 11.8054 7.80527 12.216 7.80527 12.72C7.80527 13.1774 7.95927 13.5274 8.26727 13.77C8.57527 14.0127 9.08394 14.19 9.79327 14.302L11.1933 14.526C12.2573 14.7034 13.0319 15.0067 13.5173 15.436C14.0119 15.8654 14.2593 16.458 14.2593 17.214C14.2593 17.6434 14.1659 18.04 13.9793 18.404C13.8019 18.7587 13.5453 19.0667 13.2093 19.328C12.8826 19.58 12.4859 19.7807 12.0193 19.93C11.5619 20.07 11.0579 20.14 10.5073 20.14C9.73261 20.14 8.98594 19.986 8.26727 19.678C7.55794 19.3607 6.93727 18.908 6.40527 18.32Z" fill="#D5A0FE"/>
<path d="M20.3718 19.16C20.9785 19.16 21.5571 19.0434 22.1078 18.81C22.6585 18.5674 23.1205 18.236 23.4938 17.816L24.1938 18.544C23.7085 19.048 23.1298 19.4447 22.4578 19.734C21.7858 20.014 21.0811 20.154 20.3438 20.154C19.6345 20.154 18.9671 20.0234 18.3418 19.762C17.7258 19.5007 17.1891 19.146 16.7318 18.698C16.2745 18.2407 15.9151 17.704 15.6538 17.088C15.3925 16.4627 15.2618 15.8 15.2618 15.1C15.2618 14.4 15.3925 13.742 15.6538 13.126C15.9151 12.5007 16.2745 11.964 16.7318 11.516C17.1891 11.0587 17.7258 10.6994 18.3418 10.438C18.9671 10.1767 19.6345 10.046 20.3438 10.046C21.0998 10.046 21.8138 10.1907 22.4858 10.48C23.1671 10.76 23.7458 11.152 24.2218 11.656L23.5078 12.412C23.1251 11.9827 22.6491 11.6467 22.0798 11.404C21.5198 11.1614 20.9411 11.04 20.3438 11.04C19.7838 11.04 19.2565 11.1474 18.7618 11.362C18.2765 11.5674 17.8565 11.852 17.5018 12.216C17.1471 12.5707 16.8671 13 16.6618 13.504C16.4565 13.9987 16.3538 14.5307 16.3538 15.1C16.3538 15.6694 16.4565 16.206 16.6618 16.71C16.8671 17.2047 17.1471 17.634 17.5018 17.998C17.8658 18.3527 18.2905 18.6374 18.7758 18.852C19.2705 19.0574 19.8025 19.16 20.3718 19.16Z" fill="#D5A0FE"/>
</svg>
