<svg width="154" height="123" viewBox="0 0 154 123" fill="none" xmlns="http://www.w3.org/2000/svg">
<g filter="url(#filter0_d)">
<path fill-rule="evenodd" clip-rule="evenodd" d="M100.006 73.6465H83.2484V86.4142L78.0615 86.4142C76.519 86.4142 75.2686 87.6646 75.2686 89.2071C75.2686 90.7496 76.519 92 78.0615 92H105.991C107.533 92 108.784 90.7496 108.784 89.2071C108.784 87.6646 107.533 86.4142 105.991 86.4142L100.006 86.4142V73.6465Z" fill="#D7E4E9"/>
</g>
<g filter="url(#filter1_d)">
<rect x="39.3594" y="13" width="101" height="64" rx="10" fill="white"/>
</g>
<path d="M39.3594 23C39.3594 17.4772 43.8365 13 49.3594 13H130.359C135.882 13 140.359 17.4772 140.359 23V26H39.3594V23Z" fill="url(#paint0_linear)"/>
<path d="M140.359 68C140.359 72.9706 136.33 77 131.359 77H48.3594C43.3888 77 39.3594 72.9706 39.3594 68V68H140.359V68Z" fill="url(#paint1_linear)"/>
<g filter="url(#filter2_d)">
<circle cx="91.8594" cy="20.5" r="2.5" fill="#0B66A6"/>
</g>
<g filter="url(#filter3_d)">
<path fill-rule="evenodd" clip-rule="evenodd" d="M31.7311 37.8638C30.6266 37.8638 29.7311 38.7592 29.7311 39.8638V69.6698L12.632 100.58C10.7885 103.912 13.1987 108 17.0072 108H58.7659C62.5743 108 64.9846 103.912 63.1411 100.58L46.0419 69.6698V39.8638C46.0419 38.7592 45.1465 37.8638 44.0419 37.8638H31.7311Z" fill="#D7E4E9"/>
</g>
<path fill-rule="evenodd" clip-rule="evenodd" d="M54.8207 85.5392L63.1411 100.58C64.9846 103.912 62.5743 108 58.7659 108H17.0072C13.1987 108 10.7885 103.912 12.632 100.58L20.5573 86.2533C25.3229 86.5084 29.6661 87.7269 33.4011 90.4659C39.5176 94.9514 46.0419 92.9125 48.8963 90.4659C49.338 90.0873 49.7992 89.6306 50.295 89.1397C51.5176 87.9291 52.9507 86.51 54.8207 85.5392Z" fill="url(#paint2_linear)"/>
<circle cx="41.9642" cy="81.9028" r="2.44662" fill="#A2CD6A"/>
<circle cx="34.6245" cy="61.5144" r="1.63108" fill="#A2CD6A"/>
<defs>
<filter id="filter0_d" x="53.2686" y="55.6465" width="73.5152" height="58.3535" filterUnits="userSpaceOnUse" color-interpolation-filters="sRGB">
<feFlood flood-opacity="0" result="BackgroundImageFix"/>
<feColorMatrix in="SourceAlpha" type="matrix" values="0 0 0 0 0 0 0 0 0 0 0 0 0 0 0 0 0 0 127 0"/>
<feOffset dx="-2" dy="2"/>
<feGaussianBlur stdDeviation="10"/>
<feColorMatrix type="matrix" values="0 0 0 0 0.376013 0 0 0 0 0.265938 0 0 0 0 0.4625 0 0 0 0.1 0"/>
<feBlend mode="normal" in2="BackgroundImageFix" result="effect1_dropShadow"/>
<feBlend mode="normal" in="SourceGraphic" in2="effect1_dropShadow" result="shape"/>
</filter>
<filter id="filter1_d" x="22.3594" y="0" width="131" height="94" filterUnits="userSpaceOnUse" color-interpolation-filters="sRGB">
<feFlood flood-opacity="0" result="BackgroundImageFix"/>
<feColorMatrix in="SourceAlpha" type="matrix" values="0 0 0 0 0 0 0 0 0 0 0 0 0 0 0 0 0 0 127 0"/>
<feOffset dx="-2" dy="2"/>
<feGaussianBlur stdDeviation="7.5"/>
<feColorMatrix type="matrix" values="0 0 0 0 0.376013 0 0 0 0 0.265938 0 0 0 0 0.4625 0 0 0 0.1 0"/>
<feBlend mode="normal" in2="BackgroundImageFix" result="effect1_dropShadow"/>
<feBlend mode="normal" in="SourceGraphic" in2="effect1_dropShadow" result="shape"/>
</filter>
<filter id="filter2_d" x="79.3594" y="9" width="25" height="25" filterUnits="userSpaceOnUse" color-interpolation-filters="sRGB">
<feFlood flood-opacity="0" result="BackgroundImageFix"/>
<feColorMatrix in="SourceAlpha" type="matrix" values="0 0 0 0 0 0 0 0 0 0 0 0 0 0 0 0 0 0 127 0"/>
<feOffset dy="1"/>
<feGaussianBlur stdDeviation="5"/>
<feColorMatrix type="matrix" values="0 0 0 0 0.0972222 0 0 0 0 0.28525 0 0 0 0 0.416667 0 0 0 0.45 0"/>
<feBlend mode="normal" in2="BackgroundImageFix" result="effect1_dropShadow"/>
<feBlend mode="normal" in="SourceGraphic" in2="effect1_dropShadow" result="shape"/>
</filter>
<filter id="filter3_d" x="0" y="32.8638" width="71.7731" height="90.1363" filterUnits="userSpaceOnUse" color-interpolation-filters="sRGB">
<feFlood flood-opacity="0" result="BackgroundImageFix"/>
<feColorMatrix in="SourceAlpha" type="matrix" values="0 0 0 0 0 0 0 0 0 0 0 0 0 0 0 0 0 0 127 0"/>
<feOffset dx="-2" dy="5"/>
<feGaussianBlur stdDeviation="5"/>
<feColorMatrix type="matrix" values="0 0 0 0 0.376013 0 0 0 0 0.265938 0 0 0 0 0.4625 0 0 0 0.1 0"/>
<feBlend mode="normal" in2="BackgroundImageFix" result="effect1_dropShadow"/>
<feBlend mode="normal" in="SourceGraphic" in2="effect1_dropShadow" result="shape"/>
</filter>
<linearGradient id="paint0_linear" x1="89.4617" y1="27.625" x2="89.4617" y2="13" gradientUnits="userSpaceOnUse">
<stop stop-color="#4FC7F3"/>
<stop offset="1" stop-color="#61D5FF"/>
</linearGradient>
<linearGradient id="paint1_linear" x1="87.0759" y1="60.2273" x2="64.7857" y2="90.7204" gradientUnits="userSpaceOnUse">
<stop stop-color="#61D5FF"/>
<stop offset="1" stop-color="#4FC7F3"/>
</linearGradient>
<linearGradient id="paint2_linear" x1="5.25694" y1="132.874" x2="68.9671" y2="81.3942" gradientUnits="userSpaceOnUse">
<stop stop-color="#A2CD6A"/>
<stop offset="1" stop-color="#ADEB5C"/>
</linearGradient>
</defs>
</svg>
