<svg width="47" height="62" viewBox="0 0 47 62" fill="none" xmlns="http://www.w3.org/2000/svg">
<g filter="url(#filter0_d)">
<path fill-rule="evenodd" clip-rule="evenodd" d="M38.0863 23.7556C38.6777 22.1145 39 20.3449 39 18.5C39 9.93959 32.0604 3 23.5 3C14.9396 3 8 9.93959 8 18.5C8 20.3449 8.32232 22.1145 8.91371 23.7556C11.552 32.3747 19.2632 43.3065 23.5 48.5C27.7368 43.3065 35.448 32.3747 38.0863 23.7556Z" fill="#A2CD6A"/>
</g>
<circle cx="23.5" cy="18.5" r="12.5" fill="white"/>
<path d="M30.375 25.5H29.0938C30.25 24.4688 31 22.9375 31 21.25C31 18.1875 28.5312 15.6562 25.5 15.5312V14.0625C25.5 13.4688 25.1562 12.9688 24.6875 12.7188V12.1562C24.6875 11.5312 24.1875 11 23.5625 11H20.4062C19.7812 11 19.2812 11.5312 19.2812 12.1562V12.7188C18.8125 12.9688 18.5 13.4688 18.5 14.0625V20.2188C18.5 20.9062 18.9375 21.5 19.5625 21.6875V22.875C19.5625 23.5 20.0625 24 20.7188 24H23.25C23.9062 24 24.4062 23.5 24.4062 22.875V21.6875C25.0312 21.5 25.4688 20.9062 25.4688 20.2188V17.0312C27.7188 17.1875 29.4688 19 29.4688 21.25C29.4688 23.5938 27.5625 25.5 25.2188 25.5H16.625C16 25.5 15.5 26.0312 15.5 26.625C15.5 26.8438 15.6562 27 15.875 27H31.125C31.3125 27 31.5 26.8438 31.5 26.625C31.5 26.0312 30.9688 25.5 30.375 25.5ZM21.0625 22.5V21.25H22.9062V22.5H21.0625ZM23.9375 20.25H20.0312L20 20.2188L20.0312 14H20.7812V12.5H23.1875L23.25 14H24L23.9375 20.25Z" fill="#A2CD6A"/>
<defs>
<filter id="filter0_d" x="0" y="0" width="47" height="61.5" filterUnits="userSpaceOnUse" color-interpolation-filters="sRGB">
<feFlood flood-opacity="0" result="BackgroundImageFix"/>
<feColorMatrix in="SourceAlpha" type="matrix" values="0 0 0 0 0 0 0 0 0 0 0 0 0 0 0 0 0 0 127 0"/>
<feOffset dy="5"/>
<feGaussianBlur stdDeviation="4"/>
<feColorMatrix type="matrix" values="0 0 0 0 0.0823529 0 0 0 0 0.219686 0 0 0 0 0.486275 0 0 0 0.44 0"/>
<feBlend mode="normal" in2="BackgroundImageFix" result="effect1_dropShadow"/>
<feBlend mode="normal" in="SourceGraphic" in2="effect1_dropShadow" result="shape"/>
</filter>
</defs>
</svg>
